<?xml version="1.0" encoding="UTF-8"?>
<!DOCTYPE svg PUBLIC "-//W3C//DTD SVG 1.1//EN" "http://www.w3.org/Graphics/SVG/1.1/DTD/svg11.dtd">
<!-- Creator: CorelDRAW X7 -->
<svg xmlns="http://www.w3.org/2000/svg" xml:space="preserve" width="1264px" height="307px" version="1.1" style="shape-rendering:geometricPrecision; text-rendering:geometricPrecision; image-rendering:optimizeQuality; fill-rule:evenodd; clip-rule:evenodd"
viewBox="0 0 1264 307"
 xmlns:xlink="http://www.w3.org/1999/xlink">
 <defs>
  <style type="text/css">
   <![CDATA[
    .fil0 {fill:white}
   ]]>
  </style>
 </defs>
 <g id="Layer_x0020_1">
  <metadata id="CorelCorpID_0Corel-Layer"/>
  <path class="fil0" d="M2 124l14 -31c0,-1 0,-1 1,-1 0,0 0,0 0,1l11 16c0,1 0,1 -1,1l-24 15c0,0 -1,0 -1,0 0,0 0,0 0,-1zm55 113l-10 -31c0,0 0,0 0,-1 1,0 1,0 1,0l10 2c0,0 0,0 0,0l0 30c0,0 0,1 0,1 -1,0 -1,0 -1,-1zm0 -33l-9 -1c0,0 0,-1 -1,-1 0,0 0,0 0,0l10 -22c0,-1 0,-1 1,-1 0,0 0,0 0,1l0 23c0,0 0,1 0,1 0,0 0,0 -1,0zm-55 95l27 -14c0,0 1,0 1,0l25 17c0,0 0,1 0,1 0,0 0,1 -1,1l-51 -3c-1,0 -1,-1 -1,-1 0,0 0,-1 0,-1zm-1 -8l0 -35c0,0 0,0 0,-1 1,0 1,0 1,0l24 7c1,0 1,0 1,1 0,0 0,0 0,0l-25 29c0,0 0,0 0,0 -1,0 -1,0 -1,-1zm0 -39l0 -3c0,0 0,0 0,0l12 -27c0,-1 0,-1 1,-1 0,0 0,0 0,1l13 36c0,1 0,1 0,1 0,0 0,1 -1,0l-24 -6c-1,-1 -1,-1 -1,-1zm0 -13l0 -26c0,0 0,-1 0,-1 1,0 1,0 1,0l9 6c0,0 0,1 0,1l-8 20c-1,0 -1,0 -1,0 -1,0 -1,0 -1,0zm0 -31l0 -4c0,-1 0,-1 0,-1l24 -19c0,0 0,0 1,0 0,0 0,1 0,1l-13 30c0,0 0,1 -1,1 0,0 0,0 0,0l-11 -7c0,-1 0,-1 0,-1zm0 -10l0 -2c0,0 0,0 0,0l13 -32c0,0 0,0 1,0 0,0 0,0 0,0l13 13c0,0 0,0 0,0 0,1 0,1 0,1l-26 21c0,0 0,0 -1,0 0,0 0,0 0,-1zm0 -13l0 -43c0,0 0,-1 1,-1 0,0 0,0 1,1l9 19c0,0 0,0 0,1l-9 23c-1,1 -1,1 -1,1 -1,0 -1,-1 -1,-1zm1 -52l31 9c0,0 1,1 1,1 0,0 0,0 -1,1l-18 15c0,0 0,0 -1,0 0,0 0,-1 0,-1l-13 -24c0,0 0,-1 1,-1 0,0 0,0 0,0zm-1 -17l0 -27c0,0 0,0 0,0 0,0 1,0 1,0l12 1c0,0 0,0 0,0 0,0 0,1 0,1l-11 25c-1,1 -1,1 -1,1 -1,0 -1,-1 -1,-1zm0 -31l0 -3c0,0 0,0 0,-1l14 -17c0,0 0,0 1,0 0,0 0,1 0,1l-1 21c0,1 0,1 0,1 0,0 0,0 0,0l-13 -1c-1,0 -1,0 -1,-1zm0 -10l0 -17c0,-1 0,-1 0,-1 0,0 1,0 1,0l12 2c0,1 1,1 1,1 0,0 0,1 -1,1l-12 15c0,0 0,0 0,0 -1,0 -1,0 -1,-1zm0 -22l0 -6c0,0 0,0 0,0l8 -9c0,0 1,-1 1,-1 0,1 1,1 1,1l5 18c0,0 0,1 -1,1 0,0 0,0 0,0l-13 -3c-1,0 -1,0 -1,-1zm0 -12l0 -20c0,0 0,0 1,-1 0,0 0,1 1,1l6 12c0,0 0,1 0,1l-7 7c0,1 0,1 0,1 -1,0 -1,-1 -1,-1zm0 -28l0 -9c0,0 0,0 0,0 0,0 1,0 1,0l41 0c0,0 1,0 1,1 0,0 0,0 0,1l-32 25c0,0 0,0 -1,0 0,0 0,0 0,0l-10 -18c0,0 0,0 0,0zm48 -7l5 25c0,1 0,1 0,1 0,0 0,0 -1,0l-36 0c-1,0 -1,0 -1,0 0,-1 0,-1 0,-1l31 -25c0,0 1,0 1,0 0,0 0,0 1,0zm3 -2l26 0c1,0 1,0 1,0 0,0 0,1 0,1l-21 24c0,1 -1,1 -1,1 0,0 -1,-1 -1,-1l-5 -24c0,0 0,0 0,0 0,-1 0,-1 1,-1zm-2 32l-31 20c0,1 0,1 -1,0 0,0 0,0 0,0l-5 -20c0,0 0,-1 0,-1 0,0 0,0 0,0l36 0c1,0 1,0 1,0 0,1 0,1 0,1zm71 -27l-30 17c0,0 0,0 0,0 0,0 -1,0 -1,0l-5 -21c0,0 0,-1 0,-1 0,0 0,0 1,0l34 4c1,0 1,0 1,0 0,1 0,1 0,1zm31 16l-35 6c0,1 0,0 -1,0 0,0 0,0 0,-1l10 -20c0,-1 1,-1 1,-1 0,0 0,0 1,0l24 14c0,0 0,1 0,1 0,0 0,1 0,1zm20 29l-21 21c-1,0 -1,0 -1,0 -1,0 -1,-1 -1,-1l9 -44c0,0 0,0 0,0 1,0 1,0 1,0l13 23c0,0 0,0 0,1zm4 32l-7 23c0,1 -1,1 -1,1 0,0 -1,0 -1,0l-18 -28c-1,-1 -1,-1 0,-2l23 -22c0,-1 0,-1 0,-1 1,0 1,1 1,1l3 28c0,0 0,0 0,0zm-29 48l-7 -21c0,0 0,0 0,-1 1,0 1,0 1,0l23 2c1,0 1,1 1,1 0,0 0,1 0,1l-17 18c0,0 0,1 -1,0 0,0 0,0 0,0zm-5 -1l-30 -24c0,0 0,0 0,-1 0,0 0,0 1,0l24 4c0,0 0,0 0,0l7 20c0,0 0,1 -1,1 0,0 0,0 -1,0zm-2 -25l7 -23c0,0 0,0 0,0 1,0 1,0 1,0l17 26c0,0 0,0 0,1 0,0 0,0 -1,0l-23 -2c0,-1 -1,-1 -1,-1 0,0 0,0 0,-1zm-3 -4l-12 -32c0,0 0,-1 0,-1 0,0 1,0 1,0l19 10c0,0 0,0 0,1l-6 22c0,0 -1,1 -1,1 0,0 -1,0 -1,-1zm8 -26l-21 -11c0,0 0,0 0,0 0,-1 0,-1 0,-1l29 -34c0,0 1,0 1,0 0,0 1,0 1,1l-9 45c0,0 0,0 0,0 -1,0 -1,0 -1,0zm-32 2l-3 -11c0,0 0,0 0,0 1,-1 1,-1 1,-1l7 0c1,0 1,0 1,1 0,0 0,0 0,1l-5 10c0,1 0,1 0,1 -1,0 -1,-1 -1,-1zm9 -8l14 36c0,0 0,0 0,0 -1,1 -1,1 -1,1l-27 -4c0,0 -1,-1 -1,-1 0,0 0,0 0,-1l7 -16 7 -15c0,0 0,0 1,0 0,0 0,0 0,0zm0 -9l-7 -28c0,0 0,0 0,0 0,-1 0,-1 1,-1l36 -7c0,0 1,0 1,1 0,0 0,0 0,1l-30 34c0,0 0,0 0,0 -1,0 -1,0 -1,0zm-3 3l-8 0c0,0 -1,0 -1,0 0,-1 0,-1 0,-1l3 -21c0,0 0,0 1,0 0,0 0,0 1,0l5 21c0,0 0,0 0,1 0,0 -1,0 -1,0zm-22 -14l-5 -21c0,0 0,0 0,0 0,-1 0,-1 1,-1l17 4c0,0 0,0 0,1 0,0 0,0 0,0l-12 17c0,1 0,1 -1,1 0,0 0,-1 0,-1zm14 -11l-3 22c0,0 0,1 -1,1 0,0 0,0 -1,0l-7 -7c-1,0 -1,-1 0,-1l10 -15c1,0 1,-1 1,0 1,0 1,0 1,0zm1 -9l-17 -4c0,0 0,0 0,0 0,-1 0,-1 0,-1l26 -16c0,0 1,0 1,1 0,0 0,0 0,1l-9 19c0,0 -1,0 -1,0zm-29 -25l5 20c0,0 0,0 0,0 0,0 -1,0 -1,1l-25 3c-1,0 -1,0 -1,0 0,0 0,-1 0,-1l20 -24c0,0 1,0 1,0 0,0 0,0 1,1zm-25 44l-32 5c0,0 0,0 -1,0 0,-1 0,-1 1,-1l28 -19c0,0 1,0 1,0 0,0 0,1 1,1l2 13c0,1 0,1 0,1 0,0 0,0 0,0zm2 -13l16 12c1,0 1,0 1,0 0,1 -1,1 -1,1l-14 0c-1,0 -1,0 -1,-1l-3 -11c0,-1 1,-1 1,-1 0,0 0,0 1,0zm-1 24l0 46c0,0 -1,0 -1,0 0,0 -1,0 -1,0l-10 -24c0,0 0,0 1,0l9 -22c0,0 1,-1 1,0 0,0 1,0 1,0zm26 -11l4 -15c0,0 0,0 1,0 0,0 0,0 0,0l5 18c0,0 0,0 -1,0 0,1 0,1 0,1l-9 -3c0,0 -1,-1 0,-1zm-24 -17l26 -4c0,0 0,0 0,0 1,1 1,1 1,1l-6 18c0,1 0,1 0,1 -1,0 -1,0 -1,0l-20 -14c0,-1 -1,-1 -1,-1 1,-1 1,-1 1,-1zm45 73l30 24c0,0 0,1 0,1 0,1 0,1 -1,1l-42 -15c0,0 0,0 0,0 0,-1 0,-1 0,-1l11 -10c1,0 1,0 2,0zm-17 13l6 21c0,0 0,1 -1,1 0,0 0,0 -1,0l-28 -21c0,-1 0,-1 0,-1 0,-1 1,-1 1,-1l22 0c0,0 1,0 1,1zm4 0l45 16c1,1 1,1 1,1 0,1 0,1 -1,1l-39 7c-1,0 -1,-1 -1,-1l-6 -23c0,0 0,0 0,0 0,-1 1,-1 1,-1zm53 20l5 22c0,0 0,1 -1,1 0,0 0,0 0,0l-45 -15c0,0 -1,-1 -1,-1 0,-1 1,-1 1,-1l40 -7c0,0 1,1 1,1zm23 10l-14 12c-1,0 -1,0 -1,0 -1,0 -1,0 -1,-1l-4 -19c0,-1 0,-1 0,-1 0,0 1,0 1,0l19 7c1,1 1,1 1,1 0,0 0,1 -1,1zm19 21l-31 -6c0,-1 0,-1 0,-1 0,0 0,-1 0,-1l15 -12c0,0 1,0 1,0l15 19c1,0 1,0 1,1 -1,0 -1,0 -1,0zm13 34l-15 5c0,0 -1,0 -1,0 0,0 0,-1 0,-1l7 -28c0,0 1,-1 1,-1 0,0 1,1 1,1l7 23c0,1 0,1 0,1zm-5 40l-17 -2c0,0 0,-1 -1,-1 0,0 0,0 1,-1l20 -28c1,0 1,0 1,0 1,0 1,0 1,1l-4 31c0,0 0,0 0,0 -1,0 -1,0 -1,0zm-18 26l-1 -25c0,0 0,-1 0,-1 0,0 0,0 1,0l17 3c0,0 0,0 0,0 0,0 0,1 0,1l-15 22c-1,0 -1,1 -1,1 -1,-1 -1,-1 -1,-1zm-35 22l-2 -28c0,0 0,-1 0,-1 1,0 1,0 1,0l31 12c0,0 0,1 0,1 0,0 0,1 0,1l-29 15c0,0 -1,0 -1,0 0,0 0,0 0,0zm-30 7l-26 -17c-1,0 -1,0 -1,-1 1,0 1,0 1,0l47 13c0,0 0,0 0,0 0,1 0,1 0,1l-20 4c0,0 0,0 -1,0zm-50 2l12 -22c0,0 0,-1 0,-1 1,0 1,0 1,0l31 20c1,0 1,1 1,1 0,1 -1,1 -1,1l-43 3c-1,0 -1,0 -1,-1 0,0 0,0 0,-1zm27 -158l-48 -3c-1,0 -1,0 -1,0 0,-1 0,-1 0,-1l18 -20c1,0 1,0 2,0l30 23c0,0 0,0 0,1 0,0 -1,0 -1,0zm-52 -6l-6 -24c0,-1 0,-1 0,-1 0,0 1,-1 1,0l23 5c1,0 1,1 1,1 0,0 0,0 0,1l-18 18c0,1 0,1 -1,1 0,0 0,-1 0,-1zm19 30l-23 8c-1,0 -1,0 -1,-1 0,0 0,0 0,0l5 -28c0,-1 0,-1 0,-1 1,0 1,0 1,0l18 21c0,0 0,1 0,1 0,0 0,0 0,0zm-15 -24l49 3c0,0 1,0 1,1 0,0 0,0 -1,0l-30 19c-1,0 -1,0 -1,0l-19 -22c0,0 0,-1 0,-1 0,0 1,0 1,0zm55 5l6 17c0,1 0,1 0,1 -1,0 -1,1 -1,1l-34 0c-1,0 -1,-1 -1,-1 0,0 0,-1 0,-1l29 -17c0,-1 0,-1 1,-1 0,1 0,1 0,1zm4 0l41 14c1,0 1,0 1,1 0,0 0,0 -1,0l-36 3c0,0 0,0 0,0l-6 -17c0,-1 0,-1 0,-1 0,0 0,0 1,0zm46 19l-19 15c0,0 -1,0 -1,0l-17 -12c0,0 0,-1 0,-1 0,0 0,0 1,0l35 -3c1,0 1,0 1,0 0,0 0,1 0,1zm-15 20l39 20c0,0 0,0 0,1 0,0 0,0 -1,0l-31 -4c0,0 -1,0 -1,-1l-7 -15c0,0 0,0 0,-1 0,0 1,0 1,0zm8 22l29 29c0,0 0,1 0,1 0,0 -1,0 -1,0l-33 -8c0,0 -1,0 -1,-1l5 -21c0,0 0,0 0,-1 0,0 1,0 1,1zm-8 26l5 22c1,0 0,0 0,1 0,0 0,0 -1,0l-20 -12c0,0 0,0 0,0 0,-1 0,-1 0,-1l15 -10c0,0 0,0 1,0 0,0 0,0 0,0zm-19 12l15 9c1,0 1,1 1,1 -1,0 -1,1 -1,0l-31 -5c0,0 0,0 0,0 0,-1 0,-1 0,-1l15 -4c1,0 1,0 1,0zm-29 7l-9 18c0,0 0,0 0,0 -1,0 -1,0 -1,0l-11 -19c0,-1 0,-1 0,-1 0,-1 0,-1 1,-1l19 2c1,0 1,0 1,0 0,0 0,1 0,1zm69 -87l25 39c0,0 0,0 0,1 -1,0 -1,0 -1,0l-46 -23c0,0 0,0 -1,-1 0,0 1,0 1,0l21 -17c0,0 0,0 0,0 0,0 1,0 1,1zm4 -1l34 7c0,0 0,0 0,1 0,0 0,0 0,0l-8 33c0,0 0,0 -1,0 0,0 0,0 0,0l-26 -40c0,0 0,0 0,-1 0,0 0,0 1,0zm24 47l-6 25c0,1 0,1 -1,1 0,0 0,0 0,0l-31 -31c0,0 0,0 0,-1 0,0 1,0 1,0l36 5c1,0 1,1 1,1 0,0 0,0 0,0zm17 -4l-18 25c0,0 0,0 -1,0 0,0 0,0 0,-1l5 -20c0,0 0,0 0,-1l14 -4c0,0 0,0 0,0 1,1 1,1 0,1zm-62 25l34 8c1,1 1,1 1,1 0,0 0,1 -1,1l-28 15c-1,0 -1,0 -1,0 0,0 -1,-1 -1,-1l-5 -23c0,0 0,-1 0,-1 0,0 0,0 1,0zm38 12l2 27c0,0 0,0 0,1 -1,0 -1,0 -1,0l-30 -13c-1,0 -1,0 -1,0 0,-1 0,-1 1,-1l28 -15c0,0 1,0 1,0 0,0 0,1 0,1zm-44 16l-51 12c-1,0 -1,0 -1,0 0,0 0,-1 0,-1l9 -19c0,-1 1,-1 1,-1l42 7c0,0 0,1 0,1 0,0 0,1 0,1zm-127 -134l25 -16c0,0 1,0 1,0 0,0 0,0 0,1l6 25c0,0 0,1 0,1 0,0 0,0 -1,0l-31 -10c0,0 -1,0 -1,0 0,-1 0,-1 1,-1zm26 45l-13 -12c0,0 0,-1 0,-1 0,0 0,0 0,0l18 -15c0,0 0,0 1,0 0,1 0,1 0,1l-5 27c0,0 0,0 0,0 -1,0 -1,0 -1,0zm28 -2l-11 27c0,0 -1,1 -1,1 0,0 0,0 -1,-1l-11 -20c0,0 0,0 0,0 0,-1 0,-1 1,-1l22 -7c0,0 1,0 1,0 0,1 0,1 0,1zm-25 10l11 20c0,0 0,1 0,1 0,0 0,0 0,0l-27 14c0,0 0,0 -1,0 0,0 0,0 0,-1l15 -34c0,0 1,0 1,-1 0,0 1,1 1,1zm0 76l13 -48c0,0 0,0 0,0 1,0 1,0 1,0l12 39c0,1 0,1 -1,1l-24 9c0,0 0,0 -1,0 0,0 0,-1 0,-1zm22 -2l-21 23c-1,0 -1,0 -1,0 -1,0 -1,-1 -1,-1l0 -15c0,0 0,0 1,-1l21 -7c1,-1 1,0 1,0 1,0 1,1 0,1zm19 22l-10 19c0,0 -1,1 -1,0 -1,0 -1,0 -1,0l0 -39c0,0 0,-1 1,-1 0,0 0,0 0,1l11 19c0,0 0,0 0,1zm-16 23l-24 -17c-1,0 -1,-1 -1,-1 0,0 0,0 0,0l25 -27c0,0 1,0 1,0 0,0 0,1 0,1l1 43c0,1 0,1 -1,1 0,0 0,0 -1,0zm-28 -34l0 15c0,1 0,1 -1,1l-24 12c0,1 0,0 -1,0 0,0 0,-1 0,-1l24 -27c0,-1 1,-1 1,-1 0,0 1,1 1,1zm110 27l-57 -16c0,0 0,0 0,-1 0,0 0,0 0,0l56 -13c0,0 0,0 0,0 1,0 1,0 1,0l1 29c0,0 0,0 0,1 0,0 0,0 -1,0zm-122 -74l25 -13c0,0 1,0 1,0 0,0 0,0 0,1l-13 47c0,0 0,1 0,1 -1,0 -1,-1 -1,-1l-12 -34c-1,-1 0,-1 0,-1zm40 -165l-11 26c0,0 0,0 0,0 -1,0 -1,0 -1,0l-23 -20c0,0 0,-1 0,-1 0,0 0,-1 0,-1l34 -5c1,0 1,0 1,0 0,1 0,1 0,1zm-33 26l-5 4c0,0 0,0 0,0 -1,0 -1,-1 -1,-1l1 -14c0,-1 0,-1 0,-1 1,0 1,0 1,1l4 10c0,0 0,1 0,1zm-1 -16l17 16c0,0 0,0 0,1 0,0 0,0 -1,0l-12 -2c0,0 0,0 0,0l-5 -14c-1,0 0,-1 0,-1 0,0 1,0 1,0zm20 21l-11 19c0,0 -1,0 -1,0 0,0 -1,0 -1,0l-3 -21c0,0 0,-1 0,-1 1,0 1,0 1,0l15 2c0,0 0,0 0,1 1,0 1,0 0,0zm13 30l-23 -6c0,0 0,0 0,0 -1,-1 -1,-1 0,-1l12 -21c0,0 1,0 1,0 0,0 1,0 1,0l10 27c0,0 0,0 0,0 0,1 0,1 -1,1zm-30 -15l-8 -11c0,-1 0,-1 1,-1l5 -5c0,0 0,0 0,0 1,0 1,1 1,1l2 16c0,0 0,0 0,1 -1,0 -1,0 -1,-1z"/>
  <path class="fil0" d="M338 113c11,-4 17,-16 17,-28 0,-20 -16,-33 -43,-33l-62 0 0 125 66 0c28,0 45,-14 45,-35 0,-13 -8,-26 -23,-29zm-57 -35l26 0c12,0 18,4 18,12 0,8 -6,13 -18,13l-26 0 0 -25zm0 73l0 -24 31 0c12,0 18,4 18,11 0,8 -6,13 -18,13l-31 0zm196 5l8 21 33 0 -53 -126 -29 0 -53 126 33 0 8 -21 53 0zm-11 -27l-32 0 16 -41 16 41zm199 -77l-31 0 0 71 -60 -71 -24 0 0 125 31 0 0 -68 60 68 24 0 0 -125zm90 79l35 46 38 0 -52 -70 48 -55 -37 0 -50 57 0 -57 -31 0 0 125 31 0 0 -25 18 -21zm134 -52l63 0 0 -27 -94 0 0 125 94 0 0 -27 -63 0 0 -22 55 0 0 -26 -55 0 0 -23zm150 62l27 36 37 0 -32 -42c15,-8 24,-21 24,-39 0,-27 -21,-44 -52,-44l-54 0 0 125 31 0 0 -36 19 0zm-19 -28l0 -33 23 0c12,0 21,6 21,16 0,10 -9,17 -21,17l-23 0zm202 43l8 21 33 0 -53 -126 -29 0 -54 126 34 0 8 -21 53 0zm-11 -27l-32 0 16 -41 16 41z"/>
  <path class="fil0" d="M272 227c3,-1 5,-4 5,-7 0,-5 -4,-9 -11,-9l-16 0 0 32 17 0c7,0 11,-4 11,-9 0,-3 -2,-7 -6,-7zm-14 -9l7 0c3,0 4,1 4,3 0,2 -1,3 -4,3l-7 0 0 -6zm0 18l0 -6 8 0c3,0 5,1 5,3 0,2 -2,3 -5,3l-8 0zm50 1l2 6 8 0 -13 -32 -8 0 -13 32 8 0 2 -6 14 0zm-3 -6l-8 0 4 -11 4 11zm50 -20l-8 0 0 18 -15 -18 -6 0 0 32 8 0 0 -17 15 17 6 0 0 -32zm23 20l9 12 9 0 -13 -18 12 -14 -9 0 -13 15 0 -15 -7 0 0 32 7 0 0 -6 5 -6zm153 -13l16 0 0 -7 -24 0 0 32 8 0 0 -11 14 0 0 -7 -14 0 0 -7zm39 -7c-9,0 -16,7 -16,16 0,9 7,17 16,17 10,0 17,-8 17,-17 0,-9 -7,-16 -17,-16zm0 25c-5,0 -8,-4 -8,-9 0,-5 3,-9 8,-9 6,0 9,4 9,9 0,5 -3,9 -9,9zm39 -2l7 9 10 0 -8 -11c3,-2 6,-5 6,-10 0,-6 -6,-11 -13,-11l-14 0 0 32 8 0 0 -9 4 0zm-4 -7l0 -9 5 0c3,0 6,2 6,4 0,3 -3,5 -6,5l-5 0zm73 -9l0 -7 -28 0 0 7 10 0 0 25 8 0 0 -25 10 0zm37 -7l-8 0 0 13 -13 0 0 -13 -8 0 0 32 8 0 0 -12 13 0 0 12 8 0 0 -32zm18 7l16 0 0 -7 -24 0 0 32 24 0 0 -7 -16 0 0 -5 14 0 0 -7 -14 0 0 -6zm435 0l16 0 0 -7 -23 0 0 32 23 0 0 -7 -16 0 0 -5 14 0 0 -7 -14 0 0 -6zm38 16l7 9 10 0 -8 -11c3,-2 6,-5 6,-10 0,-6 -6,-11 -13,-11l-14 0 0 32 8 0 0 -9 4 0zm-4 -7l0 -9 5 0c3,0 6,2 6,4 0,3 -3,5 -6,5l-5 0zm51 10l2 6 8 0 -13 -32 -8 0 -13 32 8 0 2 -6 14 0zm-3 -6l-8 0 4 -11 4 11zm-838 -20l-8 0 0 32 8 0 0 -32zm39 0l-7 0 0 18 -16 -18 -6 0 0 32 8 0 0 -17 15 17 6 0 0 -32zm43 14l-17 0 0 6 9 0c-1,3 -4,5 -8,5 -5,0 -9,-4 -9,-9 0,-5 4,-9 9,-9 3,0 6,1 7,5l9 0c-2,-8 -8,-12 -16,-12 -10,0 -17,7 -17,16 0,10 7,17 17,17 4,0 8,-2 10,-5l0 4 6 0 0 -18zm306 2c2,-1 4,-4 4,-7 0,-5 -4,-9 -11,-9l-15 0 0 32 16 0c7,0 11,-4 11,-9 0,-3 -2,-7 -5,-7zm-15 -9l7 0c3,0 5,1 5,3 0,2 -2,3 -5,3l-7 0 0 -6zm0 18l0 -6 8 0c3,0 5,1 5,3 0,2 -2,3 -5,3l-8 0zm53 0l-16 0 0 -25 -7 0 0 32 23 0 0 -7zm23 -25c-10,0 -17,7 -17,16 0,9 7,17 17,17 9,0 17,-8 17,-17 0,-9 -8,-16 -17,-16zm0 25c-5,0 -9,-4 -9,-9 0,-5 4,-9 9,-9 5,0 9,4 9,9 0,5 -4,9 -9,9zm42 0c-5,0 -9,-4 -9,-9 0,-5 4,-9 9,-9 4,0 7,2 8,6l8 0c-1,-8 -7,-13 -16,-13 -9,0 -16,7 -16,16 0,10 7,17 16,17 9,0 15,-6 16,-14l-8 0c-1,4 -4,6 -8,6zm38 -5l9 12 9 0 -13 -18 12 -14 -9 0 -12 15 0 -15 -8 0 0 32 8 0 0 -6 4 -6zm38 5c-5,0 -8,-4 -8,-9 0,-5 3,-9 8,-9 5,0 7,2 8,6l8 0c-1,-8 -7,-13 -16,-13 -9,0 -16,7 -16,16 0,10 7,17 16,17 9,0 15,-6 16,-14l-8 0c-1,4 -3,6 -8,6zm54 -25l-7 0 0 13 -13 0 0 -13 -8 0 0 32 8 0 0 -12 13 0 0 12 7 0 0 -32zm32 26l2 6 9 0 -14 -32 -7 0 -14 32 9 0 2 -6 13 0zm-2 -6l-8 0 4 -11 4 11zm29 -20l-8 0 0 32 8 0 0 -32zm39 0l-8 0 0 18 -15 -18 -6 0 0 32 8 0 0 -17 15 17 6 0 0 -32z"/>
 </g>
</svg>
