<?xml version="1.0" encoding="UTF-8" standalone="no"?>
<!-- Created with Inkscape (http://www.inkscape.org/) -->

<svg
   xmlns:dc="http://purl.org/dc/elements/1.1/"
   xmlns:cc="http://creativecommons.org/ns#"
   xmlns:rdf="http://www.w3.org/1999/02/22-rdf-syntax-ns#"
   xmlns:svg="http://www.w3.org/2000/svg"
   xmlns="http://www.w3.org/2000/svg"
   xmlns:sodipodi="http://sodipodi.sourceforge.net/DTD/sodipodi-0.dtd"
   xmlns:inkscape="http://www.inkscape.org/namespaces/inkscape"
   version="1.1"
   width="1400"
   height="1050"
   id="svg2"
   inkscape:version="0.48.2 r9819"
   sodipodi:docname="sd-07_mono.svg"
   inkscape:export-filename="/Users/takasehiroshi/denshoch-web/img/tw_140x90.png"
   inkscape:export-xdpi="7.7142859"
   inkscape:export-ydpi="7.7142859">
  <sodipodi:namedview
     pagecolor="#fd4991"
     bordercolor="#666666"
     borderopacity="1"
     objecttolerance="10"
     gridtolerance="10"
     guidetolerance="10"
     inkscape:pageopacity="1"
     inkscape:pageshadow="2"
     inkscape:window-width="640"
     inkscape:window-height="480"
     id="namedview8"
     showgrid="false"
     inkscape:zoom="0.16857143"
     inkscape:cx="450"
     inkscape:cy="411.17047"
     inkscape:window-x="925"
     inkscape:window-y="567"
     inkscape:window-maximized="0"
     inkscape:current-layer="svg2" />
  <defs
     id="defs4" />
  <metadata
     id="metadata7">
    <rdf:RDF>
      <cc:Work
         rdf:about="">
        <dc:format>image/svg+xml</dc:format>
        <dc:type
           rdf:resource="http://purl.org/dc/dcmitype/StillImage" />
        <dc:title></dc:title>
      </cc:Work>
    </rdf:RDF>
  </metadata>
  <g
     transform="matrix(0.709668,0,0,0.709668,380.6494,274.93962)"
     id="layer1"
     style="fill:#ffffff">
    <path
       d="m 465.59523,983.98162 c -4.52365,-1.7757 -6.95753,-4.7514 -6.98526,-8.5404 -0.0155,-2.1201 2.25416,-8.6198 5.93149,-16.9859 2.50735,-5.7044 3.62879,-14.0417 5.04406,-37.5 0.54751,-9.075 1.42985,-20.1 1.96076,-24.5 0.53092,-4.4 1.45246,-13.175 2.04788,-19.5 0.59542,-6.325 1.53971,-13.975 2.09842,-17 0.55871,-3.025 0.87788,-11.4404 0.70925,-18.701 l -0.3066,-13.201 -8.32224,5.0305 c -4.57723,2.7667 -11.10223,6.0653 -14.5,7.3301 -3.39777,1.2648 -12.22807,4.8291 -19.62289,7.9205 -7.39482,3.0915 -14.19583,5.6209 -15.11335,5.6209 -0.91752,0 -7.01722,2.6537 -13.55487,5.8971 -9.34877,4.638 -13.3812,7.328 -18.88665,12.5991 -11.5971,11.1035 -19.9632,16.0241 -22.98313,13.5178 -4.12492,-3.4234 -8.5149,-22.3334 -8.51605,-36.6832 -10e-4,-16.3151 4.72642,-30.0033 14.17955,-41.054 7.20668,-8.4247 37.87986,-32.8803 46.40783,-37.0008 l 3.0882,-1.4921 -3.45788,-9.642 c -1.90184,-5.303 -4.34512,-12.1169 -5.42953,-15.1419 -3.60802,-10.0647 -5.12559,-13.484 -6.78915,-15.2967 -1.56292,-1.7031 -1.71932,-1.5728 -3.00025,2.5 -2.07486,6.5971 -6.92301,17.1289 -8.28277,17.9929 -2.82596,1.7957 -5.66811,0.666 -9.61999,-3.8235 -4.82255,-5.4787 -6.08374,-9.4072 -6.09125,-18.9735 -0.01,-12.5232 2.17185,-15.3094 11.05482,-14.1179 2.16678,0.2906 3.9396,0.366 3.9396,0.1675 0,-0.6033 -6.0354,-10.6392 -8.97464,-14.9233 -8.03125,-11.7062 -18.02536,-37.14314 -18.02536,-45.87802 0,-2.17934 -0.52961,-2.44914 -6.02897,-3.07132 -3.64022,-0.41184 -8.86934,-2.04331 -13.19779,-4.11766 l -7.16882,-3.43557 -2.11666,1.9885 c -3.28358,3.08477 -6.5206,2.41132 -14.05266,-2.92358 -3.8143,-2.70164 -10.3101,-7.05776 -14.4351,-9.68026 -11.03477,-7.01543 -22.11843,-17.40345 -30.18452,-28.29003 -3.91924,-5.2897 -9.11343,-12.20834 -11.54264,-15.37476 -2.42921,-3.16642 -4.26783,-6.53039 -4.08582,-7.47548 0.18201,-0.9451 2.63311,-3.30439 5.44689,-5.24287 2.81378,-1.93849 7.53474,-5.36394 10.49102,-7.61212 2.95629,-2.24818 9.65007,-6.70217 14.87507,-9.89776 17.20001,-10.51945 20.42158,-12.59839 28,-18.06897 4.125,-2.97768 9.67403,-6.6586 12.33118,-8.17982 2.65714,-1.52122 6.39612,-3.97522 8.30884,-5.45334 4.03602,-3.11897 22.55441,-12.80523 24.5245,-12.82782 3.29406,-0.0378 3.98411,-1.56363 2.15132,-4.75709 l -1.77731,-3.09678 7.67391,-15.81541 c 4.22065,-8.69848 7.93975,-16.78049 8.26468,-17.96004 0.63373,-2.30059 -1.63245,-5.35537 -3.97286,-5.35537 -1.06468,0 -0.93553,-1.18746 0.60622,-5.57401 l 1.95911,-5.57402 -2.64386,-7.67598 c -1.45412,-4.2218 -4.63891,-11.83849 -7.07733,-16.92599 -4.98144,-10.39327 -4.83518,-10.3161 -14.68709,-7.75 -3.16739,0.825 -8.77443,1.4956 -12.4601,1.49023 -10.24489,-0.0149 -14.8796,-2.66476 -28.24385,-16.14802 -12.04146,-12.14868 -15.44392,-17.69323 -18.61975,-30.34221 -0.82854,-3.3 -2.13836,-7.91321 -2.9107,-10.25157 -0.77233,-2.33836 -1.41315,-5.26336 -1.42404,-6.5 -0.0109,-1.23664 -0.29459,-9.81789 -0.63046,-19.06945 -0.48466,-13.3503 -0.24897,-19.23076 1.14228,-28.5 0.96411,-6.42344 2.14471,-12.72601 2.62355,-14.00572 0.73407,-1.96183 -0.0601,-3.53014 -5.06365,-10 -6.13866,-7.93756 -14.43182,-23.57496 -17.59316,-33.17326 -0.99632,-3.025 -2.00751,-4.91417 -2.24708,-4.19816 -0.73003,2.18188 1.72798,34.07661 3.20751,41.62009 0.76353,3.89294 1.63977,8.87807 1.94719,11.07807 0.5291,3.78634 0.39518,3.6528 -2.50714,-2.5 -6.62918,-14.05359 -13.88191,-38.90719 -13.88191,-47.57041 0,-1.7491 -0.3526,-2.46683 -0.92339,-1.87959 -1.12477,1.15717 -4.07661,28.85163 -4.07661,38.24713 0,3.72839 0.6714,12.16178 1.49201,18.74088 0.82061,6.57909 1.46708,13.08699 1.43661,14.46199 -0.0535,2.41374 -0.0854,2.4255 -0.92614,0.34095 -0.47891,-1.18748 -1.35724,-5.65684 -1.95185,-9.9319 -1.36692,-9.82782 -2.17527,-10.83595 -1.44438,-1.80138 1.5511,19.17345 8.94397,57.59343 12.90769,67.07994 2.58241,6.18057 0.86717,7.2724 -2.79119,1.77672 -12.42223,-18.66096 -19.64626,-32.95587 -25.80927,-51.07141 -7.00468,-20.58954 -8.07141,-25.72716 -11.50131,-55.39292 -0.85846,-7.425 -2.61017,-19.8 -3.89267,-27.5 -2.40747,-14.45411 -4.42451,-33.14242 -4.80293,-44.5 l -0.21657,-6.5 -1.81915,9 c -3.50831,17.35689 -7.85949,60.06341 -7.28483,71.5 0.59059,11.75354 -0.34904,11.03874 -2.81791,-2.14364 -0.86076,-4.596 -2.23348,-11.28136 -3.0505,-14.85636 -6.4143,-28.06711 -6.25477,-54.97045 0.54163,-91.34033 1.34285,-7.18605 1.69593,-11.23769 1.04741,-12.01911 -0.53807,-0.64834 -1.70812,-4.32019 -2.60012,-8.15968 -3.10992,-13.38627 -4.86899,-18.99453 -6.58081,-20.98088 -4.95745,-5.75251 -13.40583,-20.52229 -17.23181,-30.125301 -5.62054,-14.10727 -8.23413,-26.99103 -8.08895,-39.8747 0.062,-5.5 -0.0294,-9.55 -0.20306,-9 -0.37116,1.17549 -2.44781,11.10281 -5.9618,28.5 -2.7402,13.56628 -7.65961,33.816221 -9.96032,41.000001 -1.9356,6.04372 -9.14426,47.00362 -10.47362,59.51147 -2.71928,25.58551 -0.70418,121.10675 2.95318,139.98853 0.53267,2.75 1.69541,9.5 2.58387,15 0.88846,5.5 2.24962,12.25 3.0248,15 1.47198,5.22192 5.75973,23.46183 6.93472,29.5 0.37459,1.925 1.59058,5.075 2.70219,7 1.11162,1.925 2.60973,5.525 3.32913,8 2.20748,7.59445 7.9814,22.89781 13.39408,35.5 5.43797,12.66109 16.55463,30.32578 21.28574,33.82364 1.52687,1.12886 2.77613,2.46539 2.77613,2.97006 0,0.50467 1.17624,2.31547 2.61386,4.02399 3.88246,4.61403 1.4722,4.3496 -6.69797,-0.73484 -10.45445,-6.50599 -16.04514,-11.69934 -25.3872,-23.58285 -10.65671,-13.55581 -14.60044,-20.10044 -26.12947,-43.36185 -5.23101,-10.55431 -10.97161,-20.70797 -12.79897,-22.63815 -11.29536,-11.93093 -23.8,-44.61684 -28.66847,-74.93661 -1.09833,-6.84013 -2.41734,-14.26513 -2.93114,-16.5 -1.249303,-5.43405 -9.509623,-52.36637 -11.539483,-65.56339 -1.85962,-12.09016 -8.26697,-45.83611 -9.55692,-50.3339 -0.85915,-2.99568 -3.20024,-20.08293 -6.42582,-46.90102 -2.30964,-19.20284 -3.11968,-43.948691 -2.16914,-66.265081 0.44511,-10.45 0.83981,-20.8 0.87712,-23 0.12817,-7.55833 2.00027,-21.01559 4.45167,-32.0000002 1.35017,-6.05 3.11611,-14.7403398 3.92431,-19.3118698 0.80819,-4.57153 3.02834,-13.07007 4.93366,-18.88566 1.90533,-5.81558 3.74405,-12.20024 4.08604,-14.18813 1.39985,-8.13688 14.884373,-40.02881 21.400713,-50.614339 2.03145,-3.3 5.22886,-8.61981 7.10537,-11.8218 6.43049,-10.97268 14.87584,-21.18012 23.41553,-28.30105 8.28502,-6.90857 18.78394,-13.37715 21.71197,-13.37715 0.78964,0 2.52665,-1.17322 3.86003,-2.60715 5.12455,-5.51103 26.87459,-23.39285 28.45322,-23.39285 0.36429,0 1.85682,-0.84364 3.31672,-1.87477 6.56126,-4.63417 27.45462,-9.87548 29.05355,-7.28837 0.39014,0.63126 3.41381,-2.54504 7.13881,-7.49918 16.90662,-22.48527 57.41625,-47.6376 90.47002,-56.17259 19.85084,-5.12579 52.3908,-10.71987 76.34794,-13.1253 13.37516,-1.34294 52.24559,-1.34131 63.17028,0.003 10.61698,1.3061 29.41976,6.90616 42.41638,12.63293 10.07022,4.43729 14.3763,7.12773 20.37198,12.7284 3.03129,2.83159 3.39992,2.94462 4.313,1.32243 2.55746,-4.54358 11.29359,-13.87329 17.02473,-18.18146 7.70651,-5.79309 15.4832,-9.80842 23.39996,-12.08208 3.27125,-0.93949 9.24792,-3.90293 13.2815,-6.58542 4.03357,-2.68253 7.96357,-4.8773 8.73332,-4.8773 0.76975,0 6.46955,1.37186 12.66622,3.04858 23.00125,6.22376 36.89986,17.62225 52.98196,43.45143 5.06146,8.12911 28.41863,51.64533 31.66805,59 2.44438,5.53259 19.11667,47.35266 19.11667,47.95146 0,2.3195 14.60176,36.597129 23.57036,55.331499 3.0851,6.44437 6.3398,13.29204 7.2326,15.21704 0.8929,1.925 2.99,5.97494 4.6602,8.99987 1.6703,3.02493 7.8412,15.51829 13.7131,27.76302 5.872,12.2447198 12.1194,24.0851998 13.8832,26.3121698 5.2016,6.5675902 28.2502,54.0921702 32.2171,66.4294402 4.0297,12.53239 7.592,28.899171 8.3735,38.470981 0.3593,4.40094 1.4569,8.31794 3.3721,12.03465 1.5617,3.03058 3.7948,9.07528 4.9625,13.43267 1.1677,4.35739 2.3592,8.3046 2.6478,8.77156 1.4721,2.38185 3.5058,21.33421 4.001,37.28564 0.5402,17.39985 0.4559,18.48346 -2.5293,32.5 -5.584,26.21986 -6.7059,30.38928 -11.0322,41 -2.3547,5.775 -5.6361,14.325 -7.2922,19 -5.2646,14.86227 -19.8952,42.01373 -31.9407,59.27567 -1.0653,1.52662 -3.435,6.25162 -5.2661,10.5 -5.7143,13.25814 -9.6836,21.01449 -11.6779,22.81927 -1.1332,1.0256 0.7378,-3.79012 4.5639,-11.74666 6.3392,-13.18261 14.0077,-34.56908 16.6435,-46.41684 1.9557,-8.79036 1.9447,-97.53889 -0.014,-109.68144 -0.7761,-4.8125 -1.8044,-8.75 -2.2851,-8.75 -0.4808,0 -1.9611,0.71226 -3.2897,1.58279 -1.3286,0.87054 -3.2253,1.41845 -4.2149,1.21758 -1.2654,-0.25688 -0.3901,-1.07563 2.9509,-2.76005 2.6125,-1.31716 4.75,-2.96393 4.75,-3.65949 0,-2.30005 -7.1011,-24.75253 -10.1354,-32.04623 -6.6694,-16.03203 -26.8181,-47.66324 -36.2229,-56.865871 -2.8279,-2.76719 -9.64122,-10.19219 -15.14059,-16.5 -9.38209,-10.76129 -31.64061,-33.15771 -32.30079,-32.50089 -0.16481,0.16397 0.23801,3.38556 0.89514,7.15909 0.83084,4.77106 0.95413,11.27961 0.40473,21.36702 -0.43452,7.97833 -0.84798,16.2721 -0.91879,18.4306 -0.13757,4.193911 -2.04631,6.122051 -2.31401,2.33754 -0.71475,-10.10386 -8.02958,-24.13589 -19.16394,-36.76209 l -3.96831,-4.5 0.37669,13 c 0.32664,11.27291 0.71622,13.76769 2.9324,18.77851 1.40564,3.17819 2.55571,6.25081 2.55571,6.82806 0,0.57725 3.58401,4.421131 7.96447,8.541951 20.06497,18.87568 32.64395,41.2308 39.79568,70.72411 2.66135,10.97524 2.37954,38.83073 -0.52788,52.17924 -1.20417,5.52854 -2.65203,15.42854 -3.21748,22 -0.97636,11.34691 -3.45157,22.44813 -5.00519,22.44813 -0.39415,0 -0.11198,-2.33096 0.62703,-5.17992 3.87659,-14.94464 3.78798,-36.02661 -0.22621,-53.82008 -3.84763,-17.05514 -12.26241,-37.6388 -20.15796,-49.30898 -4.45544,-6.58544 -6.31471,-8.42426 -3.22651,-3.19102 6.28554,10.65145 8.23091,16.80376 11.54135,36.5 1.05964,6.30461 1.36697,11.66953 0.91368,15.95008 -1.01855,9.61862 -9.85949,37.44334 -12.98519,40.86775 -0.94222,1.03226 -1.11208,-0.92197 -0.78387,-9.01845 0.80849,-19.94473 -4.35347,-35.36802 -18.67525,-55.79938 -3.27704,-4.675 -8.1134,-12.07433 -10.74746,-16.44296 l -4.78921,-7.94295 -0.73315,10.94295 c -0.40323,6.01863 -0.47733,14.20546 -0.16468,18.19296 0.32262,4.11449 0.17415,7.25 -0.34328,7.25 -0.74175,0 -5.08593,-18.04701 -5.48429,-22.78333 -0.16967,-2.01732 -1.41837,-0.0871 -2.77092,4.28333 -0.68085,2.2 -5.77532,13.225 -11.32103,24.5 -8.84859,17.9901 -10.13407,21.26521 -10.49937,26.75 -0.46961,7.05084 -2.13037,8.50576 -2.28296,2 -0.10694,-4.55956 -1.61929,-10.77024 -1.80064,-7.39461 -0.2733,5.08709 -8.45122,28.16775 -12.74267,35.96384 -0.85353,1.55058 -1.39553,2.91885 -1.20444,3.0406 0.19109,0.12176 3.27243,1.96423 6.84743,4.09439 3.575,2.13016 9.875,6.20658 14,9.05871 9.83268,6.79856 18.66482,11.58863 28.5,15.45685 4.47083,1.75839 9.98516,4.85358 12.5,7.01623 l 4.5,3.86979 -2.37172,6.8221 c -1.30445,3.75216 -3.50572,8.8471 -4.89172,11.3221 -1.386,2.475 -4.24825,7.5853 -6.36055,11.35623 l -3.84055,6.85623 4.73227,6.5115 c 4.4636,6.14181 20.6829,27.91489 31.49247,42.27604 9.2197,12.24892 18.82697,22.698 26.66368,29 2.39379,1.925 6.67495,5.83933 9.51369,8.69851 6.15689,6.20124 8.05769,7.01672 18.25389,7.83133 4.2947,0.34311 10.0585,1.21472 12.8085,1.9369 2.75,0.72217 7.25,1.83865 10,2.48106 6.3752,1.48926 13.3026,5.52475 14.6824,8.55311 3.7838,8.3044 -10.7914,19.29118 -34.5463,26.04104 l -5.864,1.66622 0.6097,3.64592 c 0.3353,2.00525 0.9011,7.33365 1.2573,11.84089 l 0.6475,8.19498 -2.6976,0.67706 c -1.4836,0.37237 -4.2554,0.42424 -6.1595,0.11524 -3.7189,-0.60348 -11.97098,-6.52713 -15.04569,-10.80029 -1.03607,-1.43992 -4.35877,-6.09711 -7.38377,-10.34931 -4.72383,-6.64023 -6.41729,-8.1917 -12,-10.99385 -3.575,-1.79441 -8.3,-3.8438 -10.5,-4.55421 -4.28936,-1.38508 -10.91719,-5.23257 -11.98214,-6.9557 -0.35764,-0.57867 -3.20796,-2.66371 -6.33406,-4.63341 -3.12609,-1.9697 -6.1338,-4.10377 -6.6838,-4.74238 -0.55,-0.63862 -3.475,-3.18319 -6.5,-5.65462 -3.025,-2.47142 -9.73505,-8.76962 -14.91123,-13.99599 l -9.41124,-9.5025 0.69339,4.5 c 0.70564,4.57956 3.71973,18.05233 6.26408,28 0.77371,3.025 2.07353,10.225 2.88849,16 0.81496,5.775 1.94787,12.975 2.51759,16 0.56972,3.025 1.41146,10.45 1.87054,16.5 0.66136,8.7158 1.49627,12.66123 4.02071,19 7.37685,18.52304 11.83691,32.30547 13.59139,42 0.79629,4.4 1.89774,10.025 2.44767,12.5 1.79109,8.061 3.98712,28.29155 4.07063,37.5 0.0449,4.95 0.43349,12.375 0.86354,16.5 0.43006,4.125 0.40445,8.53599 -0.0569,9.8022 -0.46136,1.26621 -4.17454,5.76621 -8.25152,10 -4.07697,4.23379 -8.91668,9.57233 -10.7549,11.86343 -4.35751,5.4309 -7.23109,7.0865 -9.30814,5.3627 -0.84375,-0.7003 -1.53409,-1.8931 -1.53409,-2.6507 0,-0.7577 -0.7875,-1.368 -1.75,-1.3563 -4.28771,0.052 -26.15932,2.8046 -27.14976,3.4167 -0.61772,0.3818 -1.11311,3.6144 -1.12959,7.371 -0.0268,6.1099 -4.17256,31.72624 -5.32034,32.87404 -0.26785,0.2679 -0.0364,1.7797 0.51439,3.3596 l 1.00139,2.8726 4.99704,-3.9499 c 4.05708,-3.207 5.35387,-3.759 6.89404,-2.9347 3.46461,1.8542 4.17844,4.7796 3.74705,15.3561 -0.32443,7.954 -0.88776,11.0248 -2.63843,14.3824 -3.16945,6.0787 -5.08468,4.6136 -9.12477,-6.9799 -4.54736,-13.0492 -4.3387,-12.8438 -7.52463,-7.4074 -1.50694,2.5714 -3.16497,6.3499 -3.68452,8.3967 -1.79969,7.09 -2.65773,9.7662 -6.16276,19.2215 -4.17205,11.2547 -19.96887,45.767 -33.16052,72.448 -11.75956,23.7844 -15.81367,34.325 -18.44356,47.9528 -1.13807,5.8973 -3.19327,14.7203 -4.56712,19.6066 -1.37385,4.8864 -2.49791,10.7953 -2.49791,13.1309 0,7.2266 -3.68199,27.7126 -9.14144,50.8617 -4.74324,20.1122 -4.34221,19.1699 -9.60582,22.5713 -5.32667,3.4421 -21.32558,8.7232 -31.36804,10.3543 -8.07262,1.3111 -8.2891,1.2971 -13.8847,-0.8993 z m -73.40091,-238.2179 c 0.90775,-1.7554 2.92935,-6.7332 4.49244,-11.0619 l 2.84199,-7.8702 -3.21676,-4.9357 c -3.38476,-5.1936 -6.75032,-6.9235 -13.49151,-6.935 -4.12495,-0.01 -5.22745,2.4874 -5.21967,11.8095 0.007,8.9714 1.43421,13.5591 5.67733,18.2557 4.32546,4.7877 6.71935,4.9858 8.91618,0.7376 z m 221.40514,-12.5584 c 0.7289,-1.5125 1.52592,-7.0741 1.77116,-12.359 0.66089,-14.2421 -1.66173,-16.9754 -9.02943,-10.6261 l -3.75404,3.2351 3.62452,10 c 1.99349,5.5 3.78118,10.5625 3.97266,11.25 0.57233,2.055 2.00522,1.4256 3.41513,-1.5 z m -14.34195,-21.5 c -0.27741,-0.6875 -0.50439,-0.125 -0.50439,1.25 0,1.375 0.22698,1.9375 0.50439,1.25 0.27741,-0.6875 0.27741,-1.8125 0,-2.5 z"
       id="path5776"
       style="fill:#ffffff"
       inkscape:connector-curvature="0" />
    <path
       d="m 464.90433,983.63464 c -4.45394,-2.0347 -5.28064,-2.8589 -5.8358,-5.8181 -0.70085,-3.7358 0.61277,-8.4143 5.08665,-18.1162 2.97421,-6.4498 3.76025,-11.9928 5.40333,-38.1032 0.55377,-8.8 1.45182,-20.05 1.99568,-25 0.54386,-4.95 1.47263,-13.725 2.06393,-19.5 0.59131,-5.775 1.53546,-13.425 2.09812,-17 0.56266,-3.575 0.87769,-12.2155 0.70006,-19.2011 l -0.32295,-12.7011 -8.32224,5.0306 c -4.57723,2.7668 -11.10223,6.0756 -14.5,7.353 -3.39777,1.2773 -12.36103,4.8416 -19.91835,7.9205 -7.55733,3.079 -14.35834,5.5981 -15.11335,5.5981 -0.75502,0 -6.77525,2.6588 -13.3783,5.9085 -9.54897,4.6996 -13.41353,7.2653 -18.88664,12.5391 -8.69635,8.3795 -16.16618,13.5631 -19.94178,13.8382 -2.56761,0.1871 -3.22284,-0.3565 -5.18103,-4.2984 -5.7019,-11.4782 -8.01298,-35.9601 -4.64037,-49.1566 2.1392,-8.3704 7.22964,-18.32 12.56243,-24.554 7.25735,-8.4839 38.91159,-33.62782 46.93986,-37.28572 l 2.56971,-1.1709 -3.46465,-9.6601 c -1.90556,-5.313 -4.35189,-12.1351 -5.4363,-15.1601 -3.60391,-10.0533 -5.12499,-13.4833 -6.77886,-15.2865 -1.54215,-1.6813 -1.80401,-1.3112 -4.44914,6.2873 -5.50785,15.8222 -9.43312,18.3596 -16.31214,10.5446 -4.59906,-5.2248 -6.24885,-10.4626 -6.24885,-19.839 0,-11.792 2.31219,-14.5985 11.0604,-13.4251 2.16678,0.2906 3.9396,0.366 3.9396,0.1675 0,-0.6033 -6.0354,-10.6392 -8.97464,-14.9233 -8.04581,-11.7274 -18.02536,-37.1444 -18.02536,-45.90893 0,-2.22108 -0.50703,-2.47904 -6.16283,-3.13547 -3.70699,-0.43024 -8.96621,-2.05875 -13.19779,-4.08668 l -7.03496,-3.37142 -2.11666,1.9885 c -3.28816,3.08906 -6.52066,2.41272 -14.05266,-2.94029 -3.8143,-2.71083 -10.3101,-7.07522 -14.4351,-9.69864 -11.08372,-7.04904 -22.14257,-17.40093 -30.18452,-28.25494 -3.91924,-5.2897 -9.08105,-12.16713 -11.47069,-15.28318 -2.38963,-3.11605 -4.34479,-6.35754 -4.34479,-7.20331 0,-0.84577 1.15809,-2.34628 2.57352,-3.33446 1.41544,-0.98817 6.25294,-4.53561 10.75,-7.88319 4.49707,-3.34758 12.45148,-8.70157 17.67648,-11.89776 17.16442,-10.49965 20.41642,-12.59599 28,-18.04964 4.125,-2.96644 9.525,-6.59855 12,-8.07135 2.475,-1.47279 6.975,-4.35774 10,-6.41099 6.13125,-4.16166 21.257,-11.97534 23.2278,-11.99906 3.23171,-0.0389 3.90957,-1.58325 2.08804,-4.75709 l -1.77731,-3.09678 7.67391,-15.81541 c 4.22065,-8.69848 7.93975,-16.78049 8.26468,-17.96004 0.62422,-2.26608 -1.62168,-5.35537 -3.89334,-5.35537 -0.95901,0 -0.81068,-1.37054 0.60083,-5.55156 l 1.87419,-5.55156 -2.69865,-8.19844 c -1.48426,-4.50914 -4.66237,-12.13594 -7.06246,-16.94844 -4.91572,-9.85664 -5.45882,-10.1215 -14.88876,-7.26082 -2.69991,0.81904 -8.08308,1.49404 -11.96259,1.5 -10.45338,0.016 -15.28636,-2.77959 -29.08651,-16.82503 -10.56611,-10.75392 -11.49669,-12.03051 -14.81701,-20.32627 -1.94855,-4.86842 -3.54282,-9.67813 -3.54282,-10.68823 0,-1.0101 -0.89124,-4.42697 -1.98053,-7.59305 -1.08929,-3.16607 -1.99148,-6.72402 -2.00487,-7.90655 -0.0134,-1.18253 -0.30252,-9.52512 -0.64249,-18.5391 -0.6292,-16.68221 0.35913,-28.80621 3.25542,-39.93493 l 1.38559,-5.32398 -5.90103,-7.67602 c -6.12856,-7.972 -14.4828,-23.65567 -17.67191,-33.17602 -1.20781,-3.60564 -1.98127,-4.84175 -2.24563,-3.58886 -0.74872,3.54836 1.82424,33.30538 3.81816,44.15805 1.08853,5.92476 1.83537,10.91606 1.65965,11.09178 -0.39783,0.39784 -5.81131,-11.96748 -9.04528,-20.66097 -2.84484,-7.64744 -7.61389,-28.27468 -7.65749,-33.12041 -0.0687,-7.63556 -1.85095,0.31524 -3.50147,15.62041 -1.80045,16.69542 -1.62216,31.20014 0.55587,45.22391 1.41887,9.13567 0.83244,13.99492 -0.75742,6.27609 -0.62306,-3.025 -1.42169,-7.67874 -1.77472,-10.34165 -1.12238,-8.46601 -1.57797,-4.31977 -0.59875,5.44917 2.16707,21.6193 8.55422,53.84728 12.58253,63.4884 0.79354,1.8992 1.17497,4.15104 0.84762,5.00408 -0.45091,1.17505 -1.10759,0.71645 -2.70921,-1.892 -1.16272,-1.89365 -4.32901,-6.76512 -7.03619,-10.8255 -9.2567,-13.88368 -16.45909,-30.89708 -25.56212,-60.3825 -1.30674,-4.23264 -3.00947,-14.53886 -4.04775,-24.5 -1.44138,-13.8285 -3.90386,-32.16835 -4.96798,-37 -1.80767,-8.20777 -4.10175,-28.31892 -4.73391,-41.5 l -0.62348,-13 -1.79612,9 c -3.4962,17.51885 -7.24167,52.38393 -7.2931,67.88861 -0.0539,16.24993 -0.20992,16.15649 -3.98846,-2.38861 -8.67251,-42.56475 -8.93708,-60.912 -1.46124,-101.33293 1.44122,-7.79248 1.70321,-11.19482 0.93345,-12.12232 -0.58855,-0.70916 -1.98318,-5.47298 -3.09917,-10.58626 -1.11599,-5.11328 -2.21009,-9.58977 -2.43134,-9.94775 -0.22124,-0.35799 -0.62332,-1.86998 -0.89351,-3.35997 -0.27019,-1.49 -1.77519,-4.38347 -3.34444,-6.42993 -6.7522,-8.80553 -13.33621,-20.44647 -17.09265,-30.220842 -5.5,-14.3112 -7.59493,-25.04442 -7.51449,-38.5 0.0362,-6.05 -0.0836,-10.55 -0.26609,-10 -0.1825,0.55 -2.17195,10.225 -4.42098,21.5 -2.24903,11.275 -5.9123,27.475 -8.14061,36.000002 -6.07309,23.23425 -10.79463,47.52119 -13.37399,68.79398 -3.20779,26.45561 -1.5222,122.68054 2.51732,143.70602 0.52834,2.75 1.69365,9.5 2.58958,15 0.89592,5.5 3.10731,15.85 4.9142,23 1.80688,7.15 3.83389,15.7 4.50447,19 0.67057,3.3 2.05868,7.575 3.08469,9.5 1.026,1.925 2.72129,5.975 3.7673,9 13.56119,39.21826 20.78081,53.24074 37.30466,72.45602 2.81697,3.27582 4.65973,6.11004 4.09501,6.29828 -1.8833,0.62777 -15.85941,-8.78258 -22.36459,-15.05843 -13.49547,-13.01971 -23.99718,-28.76733 -37.80913,-56.69587 -5.09831,-10.30907 -10.62434,-20.04964 -12.48107,-22 -4.34575,-4.5649 -10.66921,-15.26704 -14.68508,-24.85376 -6.66341,-15.90694 -11.12984,-33.6679 -17.38853,-69.14624 -1.989005,-11.275 -4.699895,-26.35 -6.024195,-33.5 -1.32431,-7.15 -3.57008,-20.425 -4.99061,-29.5 -1.42053,-9.075 -4.57776,-26.4 -7.01606,-38.5 -4.04007,-20.04871 -7.7299,-45.91915 -10.4831,-73.5 -1.39655,-13.990272 -1.32828,-59.420882 0.10164,-67.632062 0.62135,-3.56806 0.86496,-7.81122 0.54136,-9.42924 -0.70322,-3.51609 1.25968,-17.13036 4.74909,-32.93870004 1.39613,-6.32499996 3.0205,-14.28745996 3.60971,-17.69434996 0.5892,-3.40689 2.85356,-11.73189 5.0319,-18.5 2.17835,-6.76811 3.96309,-13.04897 3.96609,-13.95748 0.008,-2.43753 10.12576,-27.95916 15.202585,-38.34817 5.34819,-10.944308 16.15855,-28.652338 22.95294,-37.598298 7.8215,-10.29831 26.31208,-24.8089 33.84994,-26.56392 1.375,-0.32014 4.75,-2.69835 7.5,-5.28492 15.72113,-14.78684 27.93763,-23.31405 39.24362,-27.39235 7.76614,-2.8014 19.25639,-4.54307 19.25639,-2.91885 0,0.55 -2.75118,1.31126 -6.11373,1.69169 -8.86376,1.00282 -19.24137,5.07506 -28.38627,11.13896 -10.1512,6.73117 -26.1844,21.72562 -32.1102,30.02989 -2.51095,3.51878 -4.98624,6.39779 -5.50064,6.39779 -0.97406,0 0.83203,-3.19752 4.94234,-8.75 3.08226,-4.16372 1.95677,-4.09592 -5.39034,0.32467 -17.24052,10.37325 -25.0772,19.05527 -40.55106,44.92533 -7.82617,13.084218 -22.880175,47.372208 -22.896375,52.150278 -0.004,1.01735 -1.8039,7.47473 -4.001,14.34973 -2.1971,6.875 -4.49027,15.425 -5.09593,19 -0.60567,3.575 -2.17323,11.12285 -3.48349,16.773 -3.30717,14.26137 -4.56038,22.331 -5.00484,32.227 -2.60765,58.05999 -2.31974,65.54576 4.65374,121.000002 0.58789,4.675 2.83096,17.05 4.9846,27.5 2.15364,10.45 4.85344,24.85 5.99956,32 2.02539,12.63529 9.55995,55.8565 12.551435,72 0.81534,4.4 2.3478,13.17617 3.40546,19.50261 4.27785,25.58823 15.43469,57.4309 22.3965,63.9217 3.10371,2.89373 3.12028,2.67663 0.52861,-6.92431 -3.50677,-12.99096 -13.25733,-60.00438 -12.58444,-60.67727 0.48232,-0.48232 3.85093,10.66688 5.18992,17.17727 9.5838,46.59803 11.87959,54.16154 24.04805,79.22681 5.66774,11.67475 12.35683,24.60688 14.86462,28.73806 6.18346,10.18623 16.75162,23.7217 23.64795,30.28775 8.88418,8.45872 17.71104,13.93114 11.28658,6.99738 -1.6562,-1.7875 -3.77309,-4.375 -4.7042,-5.75 -0.9311,-1.375 -3.70774,-5.46581 -6.1703,-9.09069 -5.94983,-8.75814 -17.60167,-36.04584 -23.01924,-53.90931 -0.75061,-2.475 -2.51732,-6.71377 -3.92603,-9.41948 -1.40871,-2.70571 -2.56129,-5.81106 -2.56129,-6.90077 0,-1.08971 -1.99876,-10.12595 -4.44168,-20.08052 -2.44293,-9.95458 -5.16203,-23.0106 -6.04244,-29.01339 -0.88042,-6.00279 -1.76224,-11.17779 -1.9596,-11.5 -0.61789,-1.00877 -2.45408,-28.74734 -3.21621,-48.58584 -1.01346,-26.38087 -0.63886,-78.61267 0.65147,-90.83763 0.58995,-5.5893 1.7075,-13.53737 2.48345,-17.66237 0.77596,-4.125 2.6083,-14.23126 4.07188,-22.45835 1.46359,-8.22709 3.06905,-16.03145 3.56771,-17.34302 3.99615,-10.51067 17.44427,-75.798212 20.84519,-101.198632 1.14143,-8.525 3.42694,-20 5.07891,-25.5 4.48959,-14.94741 6.66313,-25.03843 7.43108,-34.5 0.62241,-7.66841 3.38298,-24.96853 6.66203,-41.75 0.67168,-3.4375 1.5918,-6.25 2.04473,-6.25 1.2068,0 1.10221,0.8858 -2.11725,17.93072 -2.81586,14.9081 -5.47286,33.98901 -4.82339,34.63849 0.16966,0.16965 3.43433,-4.95152 7.25484,-11.38038 10.88808,-18.32166 16.47224,-26.82534 16.49154,-25.11369 0.01,0.86633 -3.56925,7.39133 -7.95337,14.5 -13.91683,22.5656 -16.26874,27.91904 -23.03172,52.42486 -4.53758,16.44205 -6.03943,26.91753 -7.02503,49 -0.84202,18.86561 -0.74814,21.4023 1.17762,31.81751 2.64202,14.28907 8.87263,30.341892 16.05094,41.354392 3.01715,4.62871 9.95307,13.3461 15.41316,19.37197 5.46009,6.02587 11.17461,13.09363 12.69894,15.70613 1.52434,2.6125 2.86505,4.75063 2.97936,4.75141 0.11432,7.8e-4 0.0433,-6.63672 -0.15783,-14.75 -0.20113,-8.11328 0.15425,-28.02641 0.78972,-44.251412 1.08619,-27.73243 2.28983,-40 3.92463,-40 0.38788,0 1.50991,8.6625 2.49339,19.25 2.06391,22.21863 4.25478,38.947832 5.66406,43.250002 0.79449,2.42536 0.88997,1.85072 0.49844,-3 -3.89868,-48.301542 -5.1028,-118.012202 -2.1937,-127.000002 l 1.61837,-5 -0.62506,7 c -1.46853,16.44607 -0.71415,33.4881 2.09409,47.30744 6.03666,29.70632 20.23242,61.65754 32.87579,73.995442 l 4.40941,4.30287 -0.46417,-16.14632 c -0.44411,-15.448322 0.67639,-37.782522 2.90012,-57.806342 1.18899,-10.70641 9.73538,-42.74213004 12.34736,-46.28345 1.94109,-2.63173 1.97934,-4.31295 -0.50346,22.13036 -1.10719,11.79236 -1.117,27.19974 -0.0207,32.5 0.7684,3.71491 0.83557,3.52232 0.94237,-2.70226 0.12403,-7.22854 4.30356,-33.89596 9.20892,-58.75729 3.01404,-15.27578 10.74414,-42.27851 12.64818,-44.18255 0.64334,-0.64334 0.82208,4.64857 0.51778,15.3298 -0.56064,19.67895 0.81299,32.84306 7.23251,69.3123 2.04285,11.60543 3.21915,15.84468 5.19785,18.73247 3.00318,4.38296 4.30976,4.06758 4.30976,-1.0403 0,-2.02939 1.98058,-9.76533 4.40129,-17.19099 2.42071,-7.42565 5.60119,-17.55118 7.06773,-22.50118 2.84423,-9.60006 12.47494,-31.10105 18.3647,-41 1.96347,-3.3 6.54263,-10.05 10.17592,-15 9.28624,-12.65159 14.90786,-21.03724 18.77078,-28 3.08812,-5.56621 3.29442,-5.74695 2.8534,-2.5 -0.26146,1.925 -1.40683,7.1 -2.54527,11.5 -3.28773,12.70683 -4.41273,35.01344 -2.54048,50.37247 1.45775,11.95864 5.59997,37.7707 7.20973,44.92709 0.40821,1.81475 0.7422,-11.23525 0.7422,-29 0,-35.49527 1.06096,-48.1225 5.09949,-60.69269 0.85834,-2.67161 1.5439,-0.24193 2.41111,8.54515 3.34264,33.86979 4.39414,40.14108 9.16526,54.66336 3.06369,9.32521 15.96441,38.47168 20.66341,46.68462 6.50783,11.37444 19.04872,27.55234 28.35867,36.58303 9.22524,8.94851 20.80747,18.005512 20.7847,16.253072 -0.01,-0.73485 -0.7051,-4.486102 -1.54567,-8.336102 -0.84056,-3.85 -2.15798,-10.375 -2.9276,-14.5 -0.76962,-4.125 -2.36793,-12 -3.55181,-17.5 -4.99144,-23.18905 -9.0978,-57.29124 -10.98753,-91.24842 -1.23033,-22.10825 -0.53534,-25.87885 2.9646,-16.08409 2.95423,8.26755 8.31047,18.08889 13.27018,24.33251 6.38763,8.04119 6.6286,7.02744 1.07678,-4.53001 -6.27305,-13.05888 -12.52727,-31.0836 -12.07093,-34.78852 0.2923,-2.37306 0.71756,-1.93388 3.69746,3.81853 3.53324,6.82056 19.03865,31.6427 22.54706,36.09489 6.85361,8.69727 21.04539,23.93539 27.41183,29.43286 l 7.44006,6.42455 11.3866,-22.72615 c 6.26265,-12.49938 11.08643,-21.15115 10.71953,-19.22615 -0.62465,3.27732 -2.89156,8.48221 -6.75079,15.5 -0.90737,1.65 -4.34829,8.57234 -7.6465,15.38297 l -5.99674,12.38298 3.57419,2.61702 c 1.9658,1.43937 5.96726,4.71016 8.89212,7.26842 5.17347,4.52503 26.44595,15.9686 37.12852,19.97336 2.81269,1.05444 5.9046,2.79079 6.87092,3.85856 2.36816,2.61679 7.87084,4.3171 11.43671,3.53391 l 2.91468,-0.64017 -3.97593,-11.14581 c -3.22158,-9.03112 -3.60936,-10.81407 -2.04388,-9.39733 1.06262,0.96166 3.16899,5.44244 4.68083,9.95728 1.51184,4.51485 3.09928,8.59217 3.52765,9.06072 0.42837,0.46854 2.95477,0.38782 5.61423,-0.17938 2.65946,-0.56721 4.91225,-0.95057 5.00619,-0.85191 0.55639,0.58431 3.54979,23.99074 3.77716,29.53494 0.22572,5.50388 0.8852,7.70855 3.84186,12.84346 6.13773,10.659562 9.16181,14.395082 23.39786,28.902332 15.33706,15.62922 19.05967,18.72997 27.83774,23.18738 5.84193,2.96647 13.36733,9.92399 18.81458,17.3948 8.13561,11.15785 19.12202,38.73264 21.78728,54.68392 2.70233,16.17315 2.36874,15.57425 3.97292,7.13255 1.83251,-9.64329 1.8476,-37.30676 0.0248,-45.47095 -3.26578,-14.62724 -13.50771,-40.10537 -18.9561,-47.15577 -0.90391,-1.1697 -4.27644,-5.56466 -7.49451,-9.76657 -6.73136,-8.78932 -19.8871,-21.117902 -28.63211,-26.831892 -4.2108,-2.75134 -6.01686,-4.56441 -6.01686,-6.04021 0,-2.04386 0.0847,-2.03101 2.75,0.41741 3.35316,3.08028 9.25,7.1871 9.25,6.44211 0,-0.29814 -1.28801,-3.81628 -2.86224,-7.8181 -1.57423,-4.00182 -3.88749,-10.42603 -5.14058,-14.27603 -2.57873,-7.92295 -7.65446,-18.47804 -12.63579,-26.27646 -3.19045,-4.99474 -5.11281,-6.37009 -10.95204,-7.83565 l -2.50244,-0.62807 2.00941,3.87009 c 3.00131,5.78046 5.17454,16.02794 7.60714,35.87009 0.44221,3.60698 0.37892,3.75436 -0.64409,1.5 -7.46543,-16.45131 -16.83339,-31.08949 -26.20913,-40.95387 -7.10725,-7.47766 -33.78967,-28.82305 -42.55875,-34.04613 -16.18189,-9.63834 -19.02822,-11.4166 -18.73807,-11.70676 0.70828,-0.70827 8.9327,2.82043 12.88756,5.52943 2.33146,1.59699996 6.03902,3.82441 8.23902,4.9498 2.2,1.12539 6.72172,4.22447 10.04827,6.88685 3.32655,2.66237 10.97655,8.75915 17,13.5484 14.70437,11.69144 26.74453,25.77758 33.8783,39.63521 0.94649,1.83861 1.92725,3.13658 2.17946,2.88438 0.2522,-0.25221 -0.46495,-4.60454 -1.59368,-9.67185 -2.14391,-9.62492 -4.81621,-16.00351 -8.29581,-19.80152 -2.45754,-2.68241 -1.60803,-4.04158 1.53497,-2.45588 1.23667,0.62392 5.61645,2.28404 9.73285,3.68915 4.1164,1.4051 9.2914,3.97071 11.5,5.70135 2.2086,1.73063 4.62263,3.61322 5.3645,4.18352 1.05704,0.81258 1.02542,0.28954 -0.14618,-2.41759 -7.85292,-18.14516 -12.96328,-26.67057 -21.88472,-36.5094 l -5.31796,-5.86481 4.8797,3.45986 c 9.87258,6.99998 18.04631,14.5787 20.55006,19.05411 1.41363,2.52684 3.97385,6.35184 5.68937,8.5 1.71552,2.14816 5.876,8.11443 9.24552,13.25838 4.94087,7.54278 6.0021,8.70385 5.48405,6 -0.87611,-4.57269 -6.3129,-20.05374 -7.59512,-21.6268 -0.57122,-0.70079 -0.82105,-1.49169 -0.55519,-1.75756 0.84774,-0.84773 12.61766,18.81057 15.61662,26.08312 1.58863,3.85247 3.65433,8.34192 4.59044,9.97655 1.70098,2.97024 1.70163,2.96809 1.06418,-3.52794 -0.35081,-3.575 -1.02573,-9.875 -1.49981,-14 -0.47409,-4.125 -0.88048,-10.2 -0.90308,-13.5 -0.0659,-9.61327 -5.59228,-32.41676 -10.91679,-45.04559 -10.51112,-24.93055 -16.38588,-35.80357 -27.05675,-50.07668 -9.98759,-13.35916 -27.04933,-32.02273 -37.86518,-41.420118 -2.87541,-2.49832 -5.22802,-5.10222 -5.22802,-5.78646 0,-1.99457 11.64942,8.113918 22.66552,19.667418 l 10.16552,10.66143 -0.86449,-4.5 c -3.54692,-18.463148 -10.11321,-44.474428 -14.26287,-56.500008 -1.32851,-3.85 -3.63558,-9.40725 -5.12681,-12.34943 -4.12022,-8.12916 -2.33756,-7.28802 2.19814,1.03717 4.37438,8.0291 8.06534,18.56602 11.26233,32.15159 1.14405,4.86163 2.49435,9.92892 3.00067,11.26064 1.21073,3.18446 5.96199,27.109058 5.96199,30.021118 0,1.24707 1.11078,3.52999 2.4684,5.07316 l 2.4684,2.80576 0.0316,-4.07593 c 0.0806,-10.39549 -4.77641,-37.375428 -9.58331,-53.233848 -1.90733,-6.29243 -3.27985,-11.6288 -3.05006,-11.85859 0.64145,-0.64146 5.1815,11.25195 7.60396,19.91984 3.01012,10.77063 5.47064,25.650598 7.03912,42.569088 0.90913,9.80633 1.15967,10.60353 5.02849,16 7.82931,10.9208 12.35663,18.77927 18.25074,31.67944 11.84798,25.93112 16.22309,41.11524 17.71528,61.48216 l 0.84124,11.48215 12.37351,12.01785 c 15.38407,14.94186 38.42357,40.08605 46.09892,50.310122 7.2904,9.7113 20.8812,32.21661 25.79088,42.70772 3.11346,6.65291 6.33434,16.03581 11.82762,34.45571 0.70489,2.36363 1.03885,2.15738 8.90593,-5.5 7.22707,-7.03443 8.33612,-8.59955 9.57719,-13.51558 5.67359,-22.47393 6.77253,-47.60449 2.75233,-62.94013 -3.39593,-12.954252 -7.11631,-23.891052 -10.28046,-30.221482 -2.98896,-5.97993 -3.44819,-7.77852 -1.9861,-7.77852 2.57303,0 12.52668,27.40587 15.77366,43.430412 1.95771,9.66168 1.41638,30.27649 -1.14037,43.4273 -0.89369,4.59673 -1.39972,8.58287 -1.12451,8.85808 0.70856,0.70857 3.5071,-5.92661 6.20673,-14.71579 2.02409,-6.58985 2.31015,-7.04769 2.35723,-3.77283 0.0599,4.16532 -3.03752,13.04836 -7.92759,22.73552 -3.1279,6.19634 -15.84769,20.3728 -20.46634,22.81014 -1.90968,1.00778 -1.91481,1.26761 -0.26424,13.37745 1.33177,9.77088 1.67948,20.18039 1.66515,49.84972 -0.0211,43.6485 -0.81494,56.24147 -4.28644,67.99559 -1.38001,4.67257 -2.40445,8.60025 -2.27653,8.72818 0.23677,0.23677 3.6379,-5.05675 10.74514,-16.72377 5.82945,-9.56944 15.61768,-30.11959 19.01919,-39.93034 1.63416,-4.71331 3.58276,-9.91966 4.33021,-11.56966 5.18894,-11.45457 7.61198,-20.19399 13.16955,-47.5 2.33704,-11.48261 2.49645,-13.88365 1.95856,-29.5 -0.52489,-15.23885 -2.58627,-34.02956 -3.9806,-36.28564 -0.2886,-0.46696 -1.48011,-4.41417 -2.64781,-8.77156 -1.16769,-4.35739 -3.40081,-10.40209 -4.96249,-13.43267 -1.91524,-3.71671 -3.01279,-7.63371 -3.37211,-12.03465 -0.77729,-9.52016 -4.33714,-25.917522 -8.30805,-38.268532 -4.40706,-13.70756 -26.88614,-60.02834 -32.12612,-66.19963 -1.40442,-1.65403 -6.54527,-11.33232 -11.42411,-21.50732 -4.87884,-10.175 -10.12371,-20.975 -11.65527,-24 -11.8609,-23.42664 -23.13652,-46.55129 -23.13652,-47.44961 0,-0.27012 -1.08381,-2.86696 -2.40847,-5.77075 -7.5936,-16.646058 -12.03989,-27.487168 -14.66903,-35.766538 -4.93853,-15.55184 -20.78374,-51.62817 -31.68992,-72.1515 -20.98796,-39.49532 -28.48625,-50.75271 -40.80806,-61.26625 -9.79401,-8.35671 -16.73635,-11.8955 -30.75298,-15.67606 l -11.67824,-3.14985 -6.74665,4.36527 c -3.71066,2.4009 -11.755,9.38297 -17.87632,15.51569 -6.12131,6.13273 -12.19631,11.69457 -13.5,12.35965 -1.30368,0.66507 2.57967,-3.84312 8.62967,-10.01822 9.47462,-9.67052 10.58399,-11.13307 8,-10.54686 -12.4899,2.83348 -32.33746,17.43561 -37.52798,27.60986 l -1.87927,3.68367 2.50082,2.3494 c 1.37545,1.29216 5.09373,3.28826 8.26283,4.43577 13.08751,4.73887 38.37252,22.48488 47.12024,33.07084 5.92794,7.17363 4.8302,8.90262 -1.26257,1.9886 -5.04769,-5.72807 -25.03909,-22.58312 -26.78534,-22.58312 -0.47368,0 -3.62331,-1.78521 -6.99917,-3.96713 -6.84715,-4.42553 -13.68942,-7.21701 -23.70283,-9.67019 -5.76039,-1.41123 -10.92577,-3.99698 -9.94458,-4.97816 0.16193,-0.16193 2.07719,0.34056 4.25613,1.11664 8.77901,3.12684 7.46356,1.06222 -5.66535,-8.89187 -10.48878,-7.95239 -37.06659,-17.62995 -55.37293,-20.1625 -11.92289,-1.64944 -47.27818,-1.88515 -63,-0.42001 -30.41914,2.8348 -74.84771,11.46461 -92.46561,17.96054 -23.08004,8.50988 -54.81938,28.96951 -68.43675,44.11531 -4.99041,5.55053 -22.94113,30.76265 -28.97687,40.69856 -3.87347,6.37643 -11.49192,23.01209 -13.60083,29.69881 -1.26679,4.01662 -3.01994,6.85045 -3.01994,4.8815 0,-2.59547 3.62038,-12.73358 7.55675,-21.16106 6.74979,-14.45083 11.9289,-22.51219 30.0161,-46.72044 11.1357,-14.90425 25.34413,-26.65681 47.92715,-39.64316 27.51784,-15.82412 45.76196,-21.14604 101,-29.46229 20.57886,-3.0982 60.6942,-4.37113 79.5,-2.52267 21.15478,2.07936 50.27422,12.72621 62.58949,22.88442 5.75415,4.74629 6.81009,5.28108 7.60894,3.85361 0.51017,-0.91162 3.10826,-4.27785 5.77354,-7.4805 8.47795,-10.1873 22.00811,-19.05606 34.58031,-22.66674 3.27125,-0.93949 9.24792,-3.90293 13.2815,-6.58542 4.03357,-2.68249 7.96357,-4.87725 8.73332,-4.87725 0.76975,0 6.46955,1.37186 12.66622,3.04858 26.17725,7.08313 41.53565,21.5567 61.49422,57.95142 3.57987,6.52794 17.48729,33.18253 21.39235,41 2.63656,5.2781 20.88011,50.23271 20.88011,51.45146 0,3.43075 19.90962,48.637078 32.1718,73.048548 1.65763,3.3 6.3471,12.63536 10.42104,20.74525 4.07394,8.10988 7.40716,14.96884 7.40716,15.24213 0,1.5615 10.47859,21.32908 12.98151,24.48927 1.63878,2.06913 8.17423,14.28334 14.52322,27.1427 6.34899,12.85936 12.04044,24.25444 12.64767,25.3224 4.71122,8.28588 13.84215,44.971672 13.84623,55.630672 7.9e-4,2.04888 1.25236,5.88713 2.93472,9 1.61334,2.98517 3.88758,8.99728 5.05387,13.36025 1.1663,4.36296 2.35666,8.31473 2.64526,8.78169 1.461,2.36395 3.47291,21.30768 3.9599,37.28564 0.50461,16.55592 0.34844,18.96272 -1.94666,30 -5.0698,24.38101 -7.52092,33.38879 -12.39465,45.55005 -2.74419,6.84747 -5.56265,14.24995 -6.26325,16.44995 -2.67638,8.4043 -12.4814,27.65019 -22.28588,43.74409 -11.96543,19.64105 -11.92809,19.57259 -19.5,35.75591 -3.21669,6.875 -6.71555,13.175 -7.77524,14 -1.71262,1.33333 -1.80426,1.33333 -0.82476,0 2.26482,-3.08295 12.43376,-26.18564 15.86527,-36.04411 8.19779,-23.55165 7.90247,-20.7747 7.97124,-74.95589 0.0472,-37.19855 -0.26727,-50.53892 -1.34959,-57.25 -0.77613,-4.8125 -1.81097,-8.75 -2.29966,-8.75 -0.48869,0 -2.24668,0.70233 -3.90665,1.56074 -1.65997,0.8584 -3.53481,1.38851 -4.16631,1.17801 -0.63149,-0.2105 0.97401,-1.4426 3.56779,-2.73799 2.87554,-1.43611 4.71597,-3.0253 4.71597,-4.07216 0,-3.09666 -9.63749,-31.28447 -12.90939,-37.75748 -9.61114,-19.01437 -24.55481,-41.75826 -33.02333,-50.260692 -3.06201,-3.07426 -10.06142,-10.72426 -15.55426,-17 -9.49938,-10.85333 -31.65079,-33.10599 -32.30456,-32.45222 -0.16927,0.16926 0.2292,3.39122 0.88549,7.15989 0.82457,4.73506 0.95149,11.18228 0.41076,20.86702 -0.43037,7.70818 -0.88734,16.02066 -1.01548,18.47217 -0.13211,2.52735 -0.78172,4.640212 -1.50031,4.879742 -0.69702,0.23234 -1.00137,-0.008 -0.67633,-0.5338 0.32504,-0.525922 -0.0362,-3.644962 -0.80288,-6.931182 -2.00924,-8.61286 -9.27616,-20.99444 -18.41268,-31.37205 l -3.96183,-4.5 0.38255,13.20326 c 0.25256,8.71681 0.86376,14.1536 1.79869,16 0.77887,1.53821 1.98959,4.59674 2.69048,6.79674 0.90973,2.85553 3.50084,6.07851 9.05608,11.264522 15.06848,14.06695 26.85529,32.13802 33.8883,51.95618 5.94694,16.75775 7.2048,23.15017 7.72915,39.2793 0.39024,12.00405 0.10247,16.47954 -1.67177,26 -2.26306,12.14344 -3.33046,19.70064 -4.89605,34.66418 -0.52736,5.0403 -1.69179,10.4403 -2.58764,12 -1.57592,2.74374 -1.61306,2.75465 -1.14374,0.33582 0.26678,-1.375 1.04187,-5.425 1.72241,-9 1.79008,-9.40354 1.60732,-29.82475 -0.36244,-40.5 -3.67844,-19.93554 -11.81129,-40.97636 -21.7513,-56.27371 -4.34928,-6.69339 -6.68319,-8.68319 -2.90453,-2.47629 4.36902,7.17666 5.87852,10.79859 7.81435,18.75 3.46111,14.21652 5.31288,27.62167 4.6253,33.48302 -1.1453,9.76321 -10.8001,39.83288 -13.28212,41.36685 -0.43307,0.26765 -0.62569,-4.08908 -0.42806,-9.68162 0.7321,-20.71668 -5.82486,-39.01408 -21.38239,-59.66825 -2.27855,-3.025 -6.12049,-8.83715 -8.53764,-12.9159 l -4.39483,-7.41589 -0.76009,11.41589 c -0.41805,6.27875 -0.5033,14.4534 -0.18945,18.1659 0.90812,10.74188 -1.02358,7.87102 -3.55765,-5.28732 -1.27499,-6.62052 -2.6406,-11.68302 -3.03469,-11.25 -0.39408,0.43303 -1.27157,2.58732 -1.94997,4.78732 -0.67841,2.2 -5.77987,13.20565 -11.33659,24.45699 -8.94011,18.10208 -10.14926,21.18141 -10.50384,26.75 -0.45078,7.07932 -2.11413,8.57805 -2.2674,2.04301 -0.10023,-4.27346 -1.61289,-10.68229 -1.80064,-7.62895 -0.21168,3.44245 -7.02166,23.75703 -10.48672,31.28252 -2.00153,4.34697 -3.52075,7.96524 -3.37605,8.04061 3.14444,1.63773 14.73651,8.89845 19.26309,12.06548 10.69954,7.48595 19.03598,12.12411 28.61232,15.91907 5.5663,2.20585 11.21465,5.28091 13.87586,7.55427 l 4.48817,3.83407 -1.88056,5.53251 c -2.08725,6.14061 -5.16885,12.4957 -11.39827,23.50634 l -4.16172,7.35592 6.2321,8.63746 c 3.42766,4.7506 8.93943,12.24044 12.24839,16.64408 3.30895,4.40364 6.78001,9.20319 7.71346,10.66567 0.93345,1.46248 2.87074,3.92536 4.3051,5.47306 1.43436,1.5477 4.70048,5.75112 7.25805,9.34094 2.55757,3.58982 6.01294,8.00022 7.67861,9.80087 8.26912,8.93926 13.47077,14.08661 17.91306,17.72608 2.68529,2.2 6.99372,6.11877 9.57429,8.70837 5.67157,5.69142 7.67301,6.51778 17.73261,7.32147 4.29469,0.34311 10.05853,1.24033 12.80853,1.9938 2.75,0.75348 6.575,1.62619 8.5,1.93937 5.26133,0.85595 14.26037,5.74669 15.87846,8.62952 4.64273,8.2716 -9.95627,19.54866 -34.23975,26.44865 l -5.86129,1.66544 0.6251,3.90911 c 0.3438,2.15001 0.90123,7.17583 1.23873,11.16848 0.74767,8.84498 -0.2943,10.24043 -7.0757,9.47607 -4.7025,-0.53004 -12.53472,-5.80021 -16.18178,-10.88845 -14.01395,-19.55175 -12.81221,-18.29028 -21.09316,-22.14166 -4.28484,-1.99283 -8.91561,-3.89581 -10.29061,-4.22883 -1.375,-0.33302 -4.525,-2.15412 -7,-4.04689 -2.475,-1.89276 -7.3125,-5.28466 -10.75,-7.53756 -3.4375,-2.2529 -6.25,-4.42955 -6.25,-4.83701 0,-0.40746 -2.00442,-2.18031 -4.45427,-3.93966 -2.44985,-1.75935 -9.27447,-8.02313 -15.16582,-13.91952 l -10.71155,-10.7207 0.69797,4.5 c 0.71192,4.58993 3.73695,18.10172 6.26867,28 0.77371,3.025 2.0673,10.225 2.87464,16 0.80735,5.775 1.94414,12.75 2.52622,15.5 0.58207,2.75 1.26857,9.87912 1.52554,15.84248 0.25697,5.96337 0.95015,11.74484 1.54039,12.84772 0.59025,1.10288 1.99255,4.54877 3.11623,7.65752 1.12368,3.10875 3.35921,9.25228 4.96784,13.65228 5.19644,14.21353 6.86062,19.83786 8.43282,28.5 0.84853,4.675 1.95678,10.525 2.46278,13 1.85366,9.06674 3.87886,27.73605 3.95944,36.5 0.0455,4.95 0.43461,12.375 0.86466,16.5 0.43006,4.125 0.45502,8.4 0.0555,9.5 -0.39954,1.1 -4.17681,5.58538 -8.39393,9.96752 -4.21711,4.38213 -9.10739,9.86728 -10.86729,12.18928 -4.08733,5.3927 -7.0489,7.1283 -9.16572,5.3715 -0.84375,-0.7003 -1.53409,-1.8931 -1.53409,-2.6507 0,-0.7682 -0.99543,-1.3683 -2.25,-1.3567 -4.32233,0.04 -25.62808,2.7857 -26.68453,3.4386 -0.58601,0.3622 -1.07868,3.6695 -1.09482,7.3495 -0.0268,6.1099 -4.17256,31.7262 -5.32034,32.874 -0.26785,0.2679 -0.0364,1.7797 0.51439,3.3596 l 1.00139,2.8726 4.99704,-3.9499 c 4.05708,-3.207 5.35387,-3.759 6.89404,-2.9347 3.46461,1.8542 4.17844,4.7796 3.74705,15.3561 -0.32443,7.954 -0.88776,11.0248 -2.63843,14.3824 -3.27681,6.2846 -5.07174,4.6778 -9.73743,-8.7167 l -3.83862,-11.0201 -2.93571,5.0848 c -1.61464,2.7967 -3.73849,8.0769 -4.71966,11.7339 -4.03276,15.0306 -17.25251,45.6124 -37.45625,86.64902 -13.15962,26.729 -16.74731,36.0235 -19.87903,51.5 -1.39118,6.875 -3.43199,15.65 -4.53513,19.5 -1.10315,3.85 -2.02064,8.8 -2.03887,11 -0.0333,4.0159 -3.2138,25.0875 -5.05646,33.5 -1.33132,6.078 -7.96012,34.114 -8.52102,36.039 -1.2288,4.2171 -22.79436,13.1039 -34.94761,14.4012 -3.3,0.3523 -7.125,0.8266 -8.5,1.0541 -1.375,0.2275 -4.83506,-0.653 -7.68902,-1.9568 z m 29.28403,-46.6032 c 1.04775,-1.1361 3.25499,-4.8384 4.90499,-8.2274 2.73378,-5.6149 3.35497,-6.2364 7,-7.0041 4.19257,-0.883 13.86199,-0.4704 16.60188,0.7083 1.30129,0.5599 1.82464,-0.3992 2.78906,-5.111 0.65295,-3.19 1.59838,-10.3001 2.10095,-15.8001 0.50257,-5.5 1.79001,-12.5272 2.86098,-15.616 1.07097,-3.0888 2.90264,-10.7388 4.07037,-17 2.59608,-13.9198 6.32945,-23.6431 18.76307,-48.8669 8.05529,-16.3417 15.96604,-33.22741 28.58576,-61.01712 2.40291,-5.2914 7.51738,-19.2075 8.63681,-23.5 0.43029,-1.65 1.11914,-4.0503 1.53077,-5.334 l 0.74844,-2.334 -3.92177,2.2571 c -4.40413,2.5347 -7.26632,2.0759 -7.26632,-1.1647 0,-1.6338 -0.41292,-1.9749 -1.75,-1.4455 -2.35658,0.933 -10.13292,2.2924 -19.28628,3.3716 -14.55559,1.7161 -36.87312,-1.845 -43.31405,-6.9114 l -2.61112,-2.0539 0.62215,20.3074 c 0.62862,20.5185 0.42364,23.1069 -3.7463,47.30741 -1.57089,9.11671 -4.0584,17.50001 -5.19267,17.50001 -1.20167,0 -10.89094,6.2561 -15.36844,9.923 -1.73069,1.4173 -5.21819,4.3204 -7.75,6.4511 l -4.60329,3.8742 0,14.433 c 0,7.9382 -0.41821,16.3198 -0.92935,18.6259 -0.51115,2.306 -1.42659,9.5928 -2.03433,16.1928 -0.60773,6.6 -1.52245,15.6 -2.0327,20 -0.51025,4.4 -1.2145,11.5548 -1.565,15.8995 l -0.63729,7.8996 4.50365,-0.6173 c 4.63152,-0.6348 6.81866,0.553 7.32104,3.9759 0.11753,0.8008 1.16271,4.5804 2.32262,8.3991 1.81804,5.9855 2.42841,6.9432 4.42516,6.9432 1.27392,0 3.17347,-0.9296 4.22121,-2.0657 z m -76.59501,-84.4756 c 2.475,-0.6931 11.25,-4.0363 19.5,-7.4293 8.25,-3.393 16.8,-6.8946 19,-7.7814 8.61652,-3.4731 35.82802,-21.7042 46.64025,-31.248 3.63055,-3.2046 4.12103,-4.2596 5.81166,-12.50001 3.90553,-19.03621 4.34707,-25.29871 3.78023,-53.61521 -0.37429,-18.6971 -1.06306,-30.24 -2.17111,-36.3848 -2.46021,-13.6433 -1.50516,-12.5432 -10.37271,-11.9484 -4.22858,0.2836 -12.4516,1.2486 -18.2734,2.1444 -10.38604,1.5982 -10.80911,1.5853 -22.5,-0.6845 -6.5532,-1.2723 -12.94732,-2.6918 -14.20915,-3.1545 -2.84139,-1.0417 -12.31496,3.4879 -16.48203,7.8806 l -2.77627,2.9267 2.0043,4.4178 c 2.18278,4.8113 2.71874,13.7965 1.01305,16.9836 -0.90258,1.6865 -2.15794,1.9343 -9.8,1.9343 -5.48375,0 -9.21403,0.4492 -9.96482,1.2 -1.90838,1.9084 -1.39636,7.734 1.34475,15.3 1.39481,3.85 3.17307,9.025 3.95168,11.5 0.77861,2.475 3.04771,9.225 5.04244,15 6.50219,18.82461 7.36971,22.00001 6.01041,22.00001 -0.68256,0 -2.20559,-3.2625 -3.38453,-7.25001 -3.33963,-11.2956 -2.58402,-11.1218 -14.34968,-3.3004 -15.07451,10.02091 -15.81507,10.83011 -15.81507,17.27961 0,7.73311 2.58757,19.39521 6.6613,30.02221 l 3.5464,9.2513 -3.22024,6.677 c -3.05599,6.3364 -3.12804,6.7443 -1.41272,7.9986 0.99414,0.7269 3.05034,1.3217 4.56934,1.3217 3.25044,0 7.85592,1.9156 7.85592,3.2675 0,0.5206 0.7875,0.6101 1.75,0.1989 0.9625,-0.4112 3.775,-1.3147 6.25,-2.0077 z M 392.62923,745.02682 c 1.14208,-2.2387 3.16465,-7.2866 4.49458,-11.2175 l 2.41805,-7.1472 -3.22425,-4.7716 c -3.37715,-4.9979 -6.89856,-6.7765 -13.43908,-6.7878 -4.2779,-0.01 -5.2865,2.1281 -5.2796,11.1787 0.007,9.6029 1.36219,14.1101 5.67733,18.8865 4.57571,5.0647 6.71358,5.0325 9.35297,-0.1411 z m 220.96835,-11.6797 c 0.7289,-1.5125 1.52843,-7.1367 1.77675,-12.4981 0.36668,-7.9171 0.14149,-10.2213 -1.19888,-12.2669 -1.85378,-2.8293 -2.7549,-2.5938 -8.41929,2.1998 l -3.33719,2.8242 3.08719,7.7715 c 1.69795,4.2744 3.08719,8.1806 3.08719,8.6804 0,1.8099 1.97117,6.0391 2.81473,6.0391 0.47533,0 1.46061,-1.2375 2.1895,-2.75 z m -22.88658,-7.1324 c 4.41679,-4.4167 5.29787,-7.3762 1.24749,-4.1902 -1.44917,1.1399 -3.21703,2.0726 -3.92857,2.0726 -1.72912,0 -4.43657,2.7898 -4.43657,4.5714 0,2.5864 3.17054,1.4934 7.11765,-2.4538 z m -24.00002,1.8785 c 4.73969,-0.5432 10.15872,-1.6314 12.04229,-2.4185 3.15377,-1.3177 3.61161,-2.0893 5.78806,-9.7542 2.65616,-9.3544 5.10303,-14.7909 7.58376,-16.8497 1.48085,-1.229 1.99276,-1.0068 4.35878,1.8922 l 2.68087,3.2847 2.23864,-13.3253 c 2.73026,-16.2517 2.95633,-25.3334 0.60818,-24.4323 -0.86998,0.3339 -1.95543,0.607 -2.4121,0.607 -0.45667,0 -1.12633,1.7521 -1.48812,3.8935 -0.65616,3.8838 -0.67201,3.8952 -6.3379,4.5765 -3.12405,0.3757 -7.48009,1.0734 -9.68009,1.5506 -2.2,0.4771 -8.95,1.5864 -15,2.4649 -16.46854,2.3915 -23.67177,3.6429 -27,4.6907 -1.65,0.5195 -9.00262,2.0075 -16.33916,3.3067 -7.33654,1.2991 -13.49084,2.5138 -13.67622,2.6991 -0.18538,0.1854 0.29195,3.2578 1.06074,6.8276 0.76879,3.5697 1.70197,10.2029 2.07375,14.7404 0.37177,4.5375 1.10108,8.25 1.62069,8.25 0.51961,0 2.09011,0.9009 3.49,2.0021 7.50833,5.9061 27.52124,8.3851 48.38783,5.994 z m -162.9343,-3.2128 c -0.71756,-0.7175 -1.18333,-0.7766 -1.18333,-0.15 0,1.3348 1.18261,2.5174 1.85,1.85 0.28417,-0.2841 -0.0158,-1.0491 -0.66667,-1.7 z m 5.76687,-6.6847 c 1.63845,-3.2457 5.27731,-8.5277 8.08637,-11.7378 l 5.10736,-5.8365 -4.22096,-3.9372 -4.22097,-3.9373 -1.76536,2.1801 c -1.56539,1.9332 -8.93664,23.1829 -8.93664,25.7624 0,0.9051 1.97229,3.4077 2.6856,3.4077 0.15709,0 1.62616,-2.6556 3.2646,-5.9014 z m -9.40908,2.9679 c -0.36254,-0.5866 -1.1377,-1.0665 -1.72258,-1.0665 -0.6631,0 -0.58723,0.5738 0.20152,1.5242 1.37154,1.6526 2.59733,1.2838 1.52106,-0.4577 z m 190.66998,-0.9854 c 4.57559,-2.9018 5.04768,-3.6378 6.28749,-9.8028 0.62983,-3.1319 -1.81536,-9.2783 -3.69114,-9.2783 -1.3707,0 -3.8144,4.6001 -5.36663,10.1023 -2.84587,10.0877 -3.23095,11.8977 -2.53129,11.8977 0.3844,0 2.77011,-1.3135 5.30157,-2.9189 z m -163.39848,-3.5229 c 0.3,-4.7421 -2.10887,-13.5582 -3.7046,-13.5582 -1.30978,0 -9.79322,10.4626 -12.01558,14.8188 l -2.17341,4.2602 8.79048,-0.2895 8.79049,-0.2895 0.31262,-4.9418 z m -22.34793,-8.0582 c 3.25882,-10.6536 5.8326,-16.0164 8.10546,-16.8885 1.99053,-0.7639 7.40665,2.4207 9.25825,5.4437 l 1.32841,2.1688 2.67909,-2.5668 c 1.47349,-1.4117 5.13681,-3.9107 8.14069,-5.5534 l 5.4616,-2.9867 -2.9691,-1.1295 c -1.633,-0.6213 -6.34409,-2.0383 -10.46909,-3.1489 -7.93937,-2.1375 -31.64792,-13.1544 -38.68018,-17.9739 -2.29909,-1.5756 -4.88659,-2.8648 -5.75,-2.8648 -1.15927,0 -1.56982,-1.0245 -1.56982,-3.9173 0,-3.70517 -0.23013,-3.99901 -4.25,-5.42649 -10.29117,-3.65446 -10.75,-3.72214 -10.75,-1.58581 0,2.22268 3.16133,14.3675 5.32808,20.4688 4.5099,12.6992 21.22505,40.4055 26.56622,44.0349 1.94244,1.32 3.82098,2.0682 4.17455,1.6629 0.35357,-0.4054 1.88169,-4.787 3.39584,-9.737 z m 194.19759,3.25 c -0.27741,-0.6875 -0.50439,-0.125 -0.50439,1.25 0,1.375 0.22698,1.9375 0.50439,1.25 0.27741,-0.6875 0.27741,-1.8125 0,-2.5 z m 64.14467,-81.00885 c -0.4206,-4.53263 -0.80365,-11.93122 -0.85124,-16.4413 -0.20817,-19.73077 -8.33532,-64.82847 -12.98555,-72.05704 -1.01189,-1.57294 -1.05996,-1.55092 -0.49312,0.22591 2.51062,7.86991 8.53228,66.51121 8.52618,83.03128 -0.005,12.40975 -0.14361,13.29513 -3.06218,19.5 l -3.05738,6.5 6.344,-6.25885 6.34401,-6.25885 -0.76472,-8.24115 z M 289.53312,610.84712 c -1.11707,-2.8875 -3.5396,-8.4 -5.38341,-12.25 -1.8438,-3.85 -3.88179,-8.68335 -4.52887,-10.74078 -1.1213,-3.56524 -1.01238,-3.94063 2.32117,-8 5.81985,-7.087 27.15863,-25.89499 44.76905,-39.45942 9.13973,-7.03989 17.91473,-13.83506 19.5,-15.10037 3.62476,-2.8932 -4.44469,2.28542 -20.61771,13.23154 -6.875,4.65309 -19.25,12.61605 -27.5,17.69547 -8.25,5.07942 -17.7,11.33715 -21,13.90608 -3.3,2.56893 -7.90439,5.91696 -10.23197,7.44008 l -4.23197,2.76931 2.23197,2.90799 c 3.8328,4.99369 10.08892,13.50284 13.62234,18.5282 2.92554,4.1608 12.01216,14.3219 12.80745,14.3219 0.15015,0 -0.64097,-2.3625 -1.75805,-5.25 z m 443.42851,-118.5 c -1.19343,-12.02671 -0.99461,-19.79039 0.55463,-21.65711 1.48559,-1.79003 3.68001,-1.07218 2.28088,0.74614 -0.49133,0.63853 -1.18534,1.9779 -1.54226,2.97636 -0.74052,2.07155 -1.00842,2.11694 11.83299,-2.00467 13.70857,-4.39993 26.50548,-13.30049 26.50548,-18.43519 0,-1.08407 -1.17669,-3.06155 -2.61487,-4.39441 -2.73255,-2.53244 -12.08927,-6.48112 -15.35754,-6.48112 -1.04357,0 -3.16419,-0.48552 -4.71249,-1.07894 -1.54831,-0.59342 -6.8651,-1.49865 -11.8151,-2.01163 -12.45849,-1.29109 -15.25184,-2.38799 -21.07756,-8.27685 -2.79265,-2.82292 -7.06765,-6.70758 -9.5,-8.63258 -7.36117,-5.82577 -17.82259,-16.96102 -25.36613,-27 -3.9262,-5.225 -7.88291,-10.4 -8.7927,-11.5 -1.97257,-2.38498 -18.5946,-24.90166 -24.26361,-32.86818 -2.2,-3.09161 -4.45357,-5.62352 -5.00794,-5.62647 -0.55437,-0.003 -3.02937,3.0117 -5.5,6.6992 -2.47063,3.68751 -6.33021,8.98987 -8.57684,11.78303 -7.9113,9.83586 -11.66628,18.01437 -10.34327,22.52806 2.6323,8.98054 4.97001,19.29066 5.46106,24.08524 0.56986,5.56395 0.64746,5.67538 11.77032,16.90048 11.54497,11.65109 22.18711,20.87537 28.46272,24.67059 1.97529,1.19458 4.76708,3.28157 6.20398,4.63777 3.42052,3.22843 9.13175,6.68183 11.05818,6.68654 0.84052,0.002 4.89052,1.61508 9,3.5845 4.10949,1.96942 7.69679,3.61596 7.97179,3.65899 2.95725,0.46274 4.03508,1.22645 3.5425,2.51008 -0.74407,1.93902 9.57512,16.28848 15.4575,21.4946 5.23717,4.63509 7.26043,5.60547 11.86828,5.69218 l 3.36827,0.0634 -0.86827,-8.75 z M 466.53311,411.11936 c 5.48164,-10.98776 10.50675,-21.78051 11.1669,-23.98389 0.66014,-2.20338 1.98003,-4.71181 2.93307,-5.5743 1.59881,-1.44691 1.90255,-1.29351 3.9281,1.98389 1.20741,1.95363 2.49887,3.55206 2.86991,3.55206 0.37104,0 2.67798,3.39828 5.12653,7.55173 2.44855,4.15345 8.29577,11.64474 12.99382,16.6473 4.69805,5.00256 9.44191,10.31422 10.54191,11.80369 1.1,1.48947 2.39479,2.79192 2.87731,2.89434 0.48252,0.10242 2.84245,-5.82215 5.24429,-13.16571 l 4.36698,-13.35193 7.46986,-5.93971 c 4.10843,-3.26684 7.486,-6.21425 7.50571,-6.54981 0.0197,-0.33555 -2.32665,-0.89001 -5.21415,-1.23213 -13.21654,-1.56593 -27.08841,-4.57222 -28.6301,-6.20466 -1.51055,-1.59947 -1.45115,-1.67089 0.8801,-1.05815 1.375,0.36141 6.325,1.32488 11,2.14106 4.675,0.81617 10.41896,1.92946 12.76435,2.47397 2.34539,0.5445 5.76138,0.99001 7.59107,0.99001 1.8297,0 5.53574,0.67013 8.23565,1.48918 6.45727,1.95888 8.75424,1.89172 10.75067,-0.31431 2.59915,-2.87202 2.30797,-5.68516 -2.21616,-21.41083 l -4.23941,-14.73597 1.08687,-9.26403 c 0.59778,-5.09522 1.79387,-15.52414 2.65797,-23.17538 l 1.57109,-13.91134 -4.17293,-8.08866 c -5.50933,-10.67906 -6.66358,-11.63973 -12.21817,-10.16902 -2.37105,0.6278 -5.886,1.92887 -7.811,2.89128 -5.88688,2.94317 -25.49311,20.62199 -34.50312,31.11126 -7.88658,9.1814 -8.47629,10.17064 -7.8986,13.25 0.77758,4.14485 -0.76798,4.36588 -2.29218,0.32782 -0.9735,-2.5791 -1.64483,-3 -4.78498,-3 -7.98275,0 -12.59954,5.48224 -6.68124,7.93368 1.56194,0.64697 4.97097,3.06407 7.57564,5.37132 3.86923,3.42742 4.83697,4.96878 5.28895,8.4239 1.06068,8.10824 -2.51754,10.28338 -31.58688,19.20117 -14.196,4.355 -16.8363,5.96137 -27.04121,16.45198 -3.75565,3.8608 -4.16075,4.64834 -2.68276,5.2155 3.38953,1.30069 13.1569,-0.33361 18.16895,-3.04006 7.79655,-4.21006 18.04752,-10.83435 20.8571,-13.4781 1.41484,-1.33134 2.87146,-2.12159 3.23692,-1.75613 1.08319,1.08319 -2.64181,4.52537 -9.10529,8.41396 -3.32821,2.00234 -6.2763,3.94477 -6.5513,4.31652 -0.275,0.37175 -2.975,2.05327 -6,3.73672 -5.84267,3.25152 -14.78244,5.37035 -19.12145,4.53202 -2.37852,-0.45955 -2.68705,-0.15045 -3.3294,3.33552 -0.38937,2.1131 -2.24722,8.46123 -4.12855,14.10694 -1.88133,5.64572 -3.4206,10.70822 -3.4206,11.25 0,2.21999 5.78333,0.72004 13.55249,-3.51494 4.54045,-2.475 9.16711,-4.5 10.28146,-4.5 1.51074,0 3.11032,2.03487 6.28868,8 2.34441,4.4 4.39486,8 4.55654,8 0.16168,0 4.77894,-8.98999 10.26059,-19.97776 z m 33.69025,-53.77224 c 0.59747,-8.68963 1.02145,-10.29378 3.89844,-14.75 3.70787,-5.74319 11.11035,-13.19453 12.11247,-12.19242 0.37269,0.3727 -1.88507,3.36435 -5.01725,6.64812 -10.5378,11.04778 -11.62472,19.42167 -2.1899,16.87149 3.30096,-0.89224 4.48124,-0.3422 2.82331,1.31573 -0.61027,0.61027 -2.90389,1.15663 -5.09694,1.21413 l -3.98737,0.10456 -0.65834,5.26919 c -1.16471,9.32201 -2.59897,5.9116 -1.88442,-4.4808 z m -146.63001,63.25 c 3.025,-0.81194 6.67179,-1.4816 8.10398,-1.48813 2.26691,-0.0103 7.89602,-3.9115 7.89602,-5.47222 0,-0.30571 -1.80736,-1.279 -4.01635,-2.16287 -4.0706,-1.62873 -11.98365,-9.54722 -11.98365,-11.99189 0,-0.73344 -1.2375,-1.97765 -2.75,-2.76491 -4.45678,-2.31976 -15.46344,-13.5603 -20.8909,-21.33479 l -5.03674,-7.21481 -2.07565,9.01962 c -1.43813,6.24928 -1.81614,9.92451 -1.23073,11.96572 1.76653,6.15953 16.6776,31.26582 19.15775,32.25658 2.45355,0.98012 7.28936,0.67387 12.82627,-0.8123 z m -17.61047,-0.26531 c -0.61075,-0.40408 -1.83776,-2.15456 -2.72669,-3.88995 -0.88892,-1.73539 -2.18921,-3.76039 -2.88953,-4.5 -0.70032,-0.73961 -2.3022,-3.36974 -3.55974,-5.84474 -1.25754,-2.475 -3.38152,-6.3 -4.71996,-8.5 -3.87699,-6.3726 -4.11302,-11.22099 -1.18762,-24.39559 1.41721,-6.38242 3.96066,-19.47941 5.65212,-29.10441 4.60638,-26.21189 7.01364,-36.00549 9.94087,-40.443 4.47687,-6.78667 13.01295,-15.33595 17.46335,-17.49035 5.46009,-2.64319 16.46372,-2.94216 21.97841,-0.59717 2.32772,0.98981 3.5576,1.17505 3.12199,0.47021 -0.98586,-1.59515 -10.10128,-5.49776 -14.89592,-6.37743 -2.16325,-0.39689 -6.98951,-2.26076 -10.72503,-4.14194 -5.77825,-2.90988 -7.82453,-3.42032 -13.71148,-3.42032 -6.60423,0 -18.92019,2.92375 -21.50762,5.1058 -0.61747,0.52074 -3.34135,2.38113 -6.05307,4.13422 -15.0175,9.70859 -18.81878,20.37666 -18.97775,53.25998 -0.11982,24.78361 2.18629,38.73054 8.91778,53.93311 3.85206,8.69959 20.9801,26.28769 30.37307,31.18888 2.73262,1.42587 5.45478,1.90147 3.50682,0.6127 z m -24.38953,-39.04827 c 0,-7.84554 9.60945,-59.12172 12.92321,-68.95846 3.15025,-9.35138 8.93343,-21.43459 9.95631,-20.80242 0.50948,0.31487 -1.00384,4.96044 -3.36294,10.32348 -6.00464,13.65064 -12.466,41.59401 -16.5332,71.50098 -0.65448,4.8125 -1.59348,8.75 -2.08667,8.75 -0.49319,0 -0.89671,-0.36611 -0.89671,-0.81358 z m 81.4691,30.26132 c 1.55891,-1.17854 7.54746,-3.39208 10.5309,-3.89251 0.275,-0.0461 3.63841,-1.42532 7.47423,-3.06487 4.6813,-2.00093 8.11801,-4.29763 10.45315,-6.98568 1.9134,-2.20257 8.225,-8.80217 14.02577,-14.66577 l 10.54685,-10.6611 9,-2.66685 c 13.51833,-4.00572 29.71663,-9.67474 32.21101,-11.2731 2.97221,-1.90455 3.66619,-4.56491 2.28359,-8.75421 -1.48764,-4.50762 -10.41157,-11.06462 -16.29701,-11.97451 -2.30867,-0.35691 -5.54759,-1.01361 -7.19759,-1.45932 -1.65,-0.4457 -6.41581,-1.61151 -10.5907,-2.59068 -6.42026,-1.50579 -7.92364,-2.26621 -9.75,-4.9316 -2.6109,-3.81037 -2.84591,-10.70225 -0.61471,-18.02754 6.39465,-20.99444 6.60996,-22.52639 7.19564,-51.19695 0.61296,-30.00621 0.17757,-34.2263 -4.95666,-48.04295 -3.15339,-8.48606 -8.29461,-15.26013 -11.58171,-15.26007 -2.0526,4e-5 -6.74882,5.67144 -8.83943,10.67498 -0.83438,1.99696 -1.97743,6.14952 -2.5401,9.22791 -0.56267,3.07839 -1.44539,7.84708 -1.96159,10.59708 -0.51621,2.75 -1.33294,7.7 -1.81496,11 -0.48203,3.3 -1.58952,8.60946 -2.46109,11.79879 -0.87158,3.18933 -1.58469,8.03294 -1.58469,10.76357 0,2.73063 -0.42447,5.74617 -0.94328,6.70121 -0.5188,0.95504 -2.17029,5.78643 -3.66998,10.73643 -1.49968,4.95 -3.75957,10.54394 -5.02196,12.43098 l -2.29525,3.43097 11.75288,12.07721 c 9.91604,10.18969 12.10633,13.02234 14.01442,18.12454 3.59365,9.60932 0.91576,13.4363 -9.40193,13.4363 -5.37421,0 -5.43069,0.35927 -1.80789,11.5 1.43082,4.4 2.96936,11.15 3.41899,15 0.44963,3.85 1.12388,8.63684 1.49833,10.63743 0.55398,2.95977 0.27754,4.0407 -1.48385,5.80209 -2.04529,2.04529 -2.93389,2.148 -16.11419,1.86257 l -13.94953,-0.30209 0.002,6.93812 c 0.002,8.67138 -2.24736,12.48151 -8.80316,14.91126 -4.66576,1.72911 -7.1956,1.03582 -7.1956,-1.97182 0,-1.78523 0.99176,-1.75406 2.38976,0.0751 0.96322,1.2603 1.61118,1.21732 4.89316,-0.32449 5.8877,-2.76595 6.94007,-4.99461 6.57333,-13.92066 l -0.31667,-7.70751 15.14418,0.345 c 14.69578,0.33479 15.17862,0.28066 16.30722,-1.82814 0.63966,-1.19523 0.86888,-2.92548 0.50937,-3.845 -0.3595,-0.91952 -1.05128,-5.27186 -1.53727,-9.67186 -0.48599,-4.4 -2.25409,-12.22577 -3.9291,-17.39061 -3.52476,-10.86847 -3.16371,-12.10939 3.52337,-12.10939 5.51872,0 9.03963,-1.35085 9.65508,-3.70433 0.2672,-1.02177 -0.43042,-4.3188 -1.55027,-7.32672 -1.69404,-4.55023 -4.23051,-7.66939 -15.09912,-18.56776 -7.642,-7.66292 -14.16078,-13.36604 -15.70826,-13.74275 -4.09747,-0.99748 -9.27097,1.77282 -14.03616,7.51607 -2.37524,2.86275 -9.74597,10.85711 -16.37941,17.76525 -7.78671,8.10918 -13.61447,15.21807 -16.44506,20.06024 -2.41136,4.125 -5.56559,9.075 -7.0094,11 -3.03178,4.0422 -7.2403,12 -6.34625,12 0.33351,0 0.051,0.66916 -0.62772,1.48701 -1.59108,1.91714 -0.87169,4.63684 3.94759,14.92412 2.49503,5.32593 5.90179,10.48407 9.46935,14.33746 3.06475,3.3103 5.57228,6.46002 5.57228,6.99938 0,0.53936 1.46995,2.89545 3.26656,5.23577 4.61217,6.00796 14.31331,9.90362 24.73344,9.93213 5.11961,0.014 8.12496,-0.45195 9.4691,-1.46813 z m 104.98819,-3.37864 c 0.31644,-0.512 0.14194,-1.19876 -0.38777,-1.52613 -1.21101,-0.74845 -6.53941,-8.60694 -8.70924,-12.84465 -0.90069,-1.75908 -2.93087,-4.68291 -4.5115,-6.49741 -2.51324,-2.8851 -2.95442,-3.07332 -3.51572,-1.5 -0.35302,0.9895 -1.8906,4.60377 -3.41686,8.0317 l -2.775,6.23261 6.6794,3.19252 c 5.8226,2.78299 13.23664,5.56879 15.37038,5.77536 0.38004,0.0368 0.94988,-0.35201 1.26631,-0.864 z m -159.20896,-30.1508 c -2.42032,-4.99494 -4.63777,-10.54326 -4.92765,-12.32961 -0.58346,-3.59543 2.33634,-10.25066 8.07706,-18.41041 1.81025,-2.57306 4.79074,-7.37828 6.62333,-10.67828 1.95052,-3.51239 8.33766,-11.23848 15.40545,-18.63495 14.16845,-14.82734 21.57348,-23.28022 21.57348,-24.62623 0,-0.53113 -2.8125,-2.24625 -6.25,-3.81137 -8.42711,-3.83693 -18.71621,-4.51727 -24.3413,-1.60951 -6.05867,3.13189 -17.9468,16.32855 -18.69054,20.74781 -0.17903,1.06384 -1.07924,4.18425 -2.00045,6.93425 -0.92121,2.75 -2.34069,9.275 -3.15439,14.5 -0.81371,5.225 -2.39934,14.53055 -3.52364,20.67899 -2.26924,12.40982 -2.12739,13.3695 3.12553,21.14667 2.91933,4.32218 11.6705,15.17434 12.23657,15.17434 0.13593,0 -1.73313,-4.08677 -4.15345,-9.0817 z m 285.35982,-8.7265 c 3.35948,-4.23049 8.0517,-10.6168 10.42715,-14.1918 2.37544,-3.575 5.75153,-8.3 7.5024,-10.5 1.75088,-2.2 4.58609,-6.77972 6.30048,-10.17715 1.71439,-3.39744 3.49747,-6.41226 3.96241,-6.69961 0.46494,-0.28735 2.59535,-4.85264 4.73425,-10.1451 l 3.88889,-9.62265 -3.96186,-3.36066 c -2.17903,-1.84836 -8.23687,-5.06256 -13.46187,-7.14266 -9.94536,-3.9593 -16.83575,-7.83642 -30.99711,-17.44161 -9.77848,-6.63241 -18.52601,-11.74035 -28.50289,-16.64368 -3.85,-1.89215 -8.16309,-4.53917 -9.58465,-5.88226 l -2.58465,-2.44197 0.44638,5.77867 c 0.36327,4.70265 2.00489,8.96954 8.81607,22.91471 4.60333,9.42482 8.87679,18.42482 9.49658,20 5.01844,12.75425 22.40415,61.73862 23.90907,67.36397 1.35042,5.04784 1.81295,6.0258 2.81022,5.9418 0.38004,-0.032 3.43965,-3.51951 6.79913,-7.75 z m -10.60815,-5.27518 c 0,-0.59587 4.8375,-6.10837 10.75,-12.25 10.58852,-10.99888 20.56738,-24.60855 24.40571,-33.28571 1.07733,-2.4355 2.37855,-4.16875 2.89159,-3.85167 2.77513,1.71512 -12.11526,24.00635 -25.10098,37.5767 -5.47045,5.71673 -9.94629,10.95656 -9.9463,11.64406 -1e-5,0.6875 -0.67502,1.25 -1.50002,1.25 -0.825,0 -1.5,-0.48752 -1.5,-1.08338 z m -355.80263,-3.12246 c -3.86311,-16.85135 -6.81047,-35.67799 -8.18679,-52.29416 -0.59224,-7.15 -1.4997,-17.275 -2.01659,-22.5 -1.26467,-12.78394 -1.24563,-25.87095 0.0698,-48 0.92462,-15.55453 3.3907,-34.02159 4.38416,-32.83054 0.15164,0.1818 -0.58823,11.80554 -1.64415,25.83054 -1.91504,25.436 -1.86891,49.19939 0.11357,58.5 l 0.85262,4 0.115,-4.6928 c 0.11286,-4.60568 4.05718,-47.62292 6.1715,-67.3072 3.70745,-34.51626 2.30373,-95.69009 -2.69407,-117.40753 -0.32812,-1.42586 -3.41922,-8.217472 -6.8691,-15.092472 -6.46996,-12.89349 -14.7147,-35.82216 -15.94447,-44.34165 -0.38439,-2.66291 -0.86206,-4.67848 -1.06149,-4.47904 -0.65743,0.65742 1.51289,51.95488 2.99632,70.820692 0.85264,10.84366 2.50206,23.21857 3.98549,29.90148 1.39196,6.27081 2.51378,13.24581 2.49293,15.5 -0.0383,4.14718 -0.87584,1.39663 -10.00673,-32.86461 -1.64865,-6.18614 -3.61654,-17.51518 -4.51628,-26.000002 -2.97302,-28.03652 -2.90905,-27.99825 -4.24136,-2.53687 -1.43153,27.357442 -1.51154,47.695552 -0.23938,60.847362 0.8838,9.13688 0.60573,12.61929 -0.93176,11.66907 -0.42012,-0.25964 -1.08276,9.08044 -1.47254,20.75574 -0.76666,22.96445 0.23453,36.07089 4.90632,64.22783 1.27759,7.7 2.83337,19.175 3.45729,25.5 2.73268,27.70228 8.43714,49.09164 19.16395,71.85691 5.09964,10.82284 13.15006,25.16912 13.79089,24.57612 0.20488,-0.18959 -0.99893,-6.32708 -2.67513,-13.63887 z m 214.30263,-27.36183 c -10.93121,-8.08141 -14.87022,-10.6621 -18.93053,-12.40255 -6.40593,-2.7459 -7.56947,-2.6175 -7.56947,0.83536 0,4.70851 3.15398,7.62085 10.19388,9.41288 11.00927,2.80245 14.25446,3.51376 16.30612,3.57409 2,0.0588 2,0.0588 0,-1.41978 z m 89.52848,-6.18233 c 3.30522,-8.74928 4.71203,-14.81106 6.34053,-27.32058 1.82277,-14.0018 2.83893,-36.2737 1.85612,-40.68181 l -0.72513,-3.25238 -7,5.48866 c -8.07329,6.33023 -19.85965,14.24974 -20.11559,13.51611 -0.0959,-0.275 -1.00918,0.22016 -2.02942,1.10037 -1.02025,0.8802 -8.15499,4.63557 -15.85499,8.34527 -17.71955,8.5369 -16.47398,8.01471 -26.5,11.1099 -12.6308,3.89933 -12.71685,3.95217 -15.55508,9.55316 -2.42106,4.77773 -2.5726,5.80044 -1.93195,13.03785 0.86544,9.77667 -0.33717,10.21923 -6.89879,2.53878 -3.59466,-4.2076 -6.55209,-6.30031 -14.19761,-10.04638 -5.31142,-2.60244 -9.77931,-4.59834 -9.92864,-4.43533 -0.8199,0.89504 -3.21958,9.41258 -2.83041,10.04638 0.25328,0.4125 1.27054,0.75 2.26058,0.75 0.99003,0 4.33847,1.2804 7.44098,2.84534 5.60497,2.82721 5.64092,2.83138 5.64092,0.65499 0,-1.2047 0.97065,-3.0476 2.15699,-4.09534 2.14952,-1.89839 2.15444,-1.89633 1.41927,0.59501 -1.76722,5.98873 -1.75414,6.86727 0.12621,8.47727 3.40543,2.91583 10.29753,6.6637 10.29753,5.59973 0,-2.07944 8.1705,-5.31747 12.09077,-4.79165 3.37845,0.45315 4.03504,0.14157 6.70621,-3.18234 l 2.96108,-3.68467 -1.99158,-3.95917 c -2.32302,-4.61808 -6.60657,-9.45917 -8.36975,-9.45917 -0.676,0 -1.82666,1.35 -2.55702,3 -1.18365,2.67405 -3.83971,4.21809 -3.83971,2.23213 0,-1.16448 4.97021,-8.23266 5.78605,-8.22839 2.36682,0.0124 7.53401,4.6275 9.984,8.91727 l 2.85775,5.00374 7.44038,-7.71237 c 10.87768,-11.27535 27.1748,-24.41764 32.7186,-26.38488 9.75615,-3.46199 11.68923,-2.38633 18.27849,10.17106 4.46399,8.50718 4.54975,9.44247 2.42674,26.46343 -0.82061,6.5791 -1.49201,12.3166 -1.49201,12.75 0,2.01055 1.03521,0.31442 3.02848,-4.96199 z M 479.9779,304.25419 c 0.96961,-1.83861 1.56445,-3.5414 1.32188,-3.78397 -0.24257,-0.24258 -2.41325,-0.005 -4.82374,0.52826 -2.41048,0.53312 -8.20769,1.26465 -12.88269,1.62563 -12.39412,0.95701 -12.68134,1.57457 -2.90725,6.25082 8.67829,4.15197 11.66635,6.39037 14.66359,10.98468 l 1.74366,2.67276 0.56082,-7.46763 c 0.3128,-4.16519 1.34043,-8.94598 2.32373,-10.81055 z m -15.45007,-6.12283 c 2.39245,-0.63199 2.37118,-0.68221 -1.23211,-2.90917 -4.03099,-2.49129 -6.84857,-6.02124 -8.48084,-10.62507 l -1.06364,-3 -0.0908,3 c -0.0499,1.65 -0.73988,5.43881 -1.53317,8.41957 -0.79329,2.98076 -1.22541,5.77057 -0.96027,6.19958 0.48589,0.78619 8.8481,0.10717 13.36084,-1.08491 z m 15.56552,-2.39054 c 10.88104,-2.23601 14.26545,-5.88386 17.5459,-18.91171 1.70115,-6.75588 0.85434,-16.33676 -1.60999,-18.21552 -4.84963,-3.69727 -7.82886,-3.568 -16.41362,0.71219 -4.45158,2.21947 -11.54169,5.03048 -15.75581,6.24669 -7.48348,2.15977 -7.69437,2.30833 -9.04998,6.37516 -1.272,3.81598 -1.2137,4.52383 0.69777,8.4724 1.14715,2.3697 2.08573,4.6595 2.08573,5.08844 0,2.20486 4.60863,6.71305 9.20317,9.0026 5.88548,2.93286 5.28104,2.87696 13.29683,1.22975 z m 40.84501,-16.51219 c 15.83656,-7.79173 30.95493,-16.04871 38.3218,-20.92965 11.23489,-7.44372 31.73674,-24.56221 38.83319,-32.42468 23.72866,-26.29001 27.44988,-31.59858 33.13325,-47.26691 2.32407,-6.40716 1.98119,-31.77298 -0.58523,-43.29471 -1.12641,-5.05691 -2.04802,-10.71757 -2.04802,-12.57925 0,-1.86167 -0.65504,-5.24143 -1.45564,-7.51058 -0.8006,-2.26915 -1.23307,-4.12573 -0.96105,-4.12573 0.27203,0 -0.431,-0.99352 -1.5623,-2.20782 -1.76719,-1.89686 -6.92503,-9.624602 -11.72971,-17.574052 -0.75854,-1.25502 -1.80939,-2.01596 -2.33523,-1.69098 -0.52584,0.32499 -0.95607,-0.34541 -0.95607,-1.48978 0,-1.14436 -1.72316,-5.78342 -3.82923,-10.30902 -2.10608,-4.52559 -4.64222,-10.36585 -5.63586,-12.97835 -2.11192,-5.55268 -2.54709,-5.64238 -15.19407,-3.13197 l -8.15915,1.61958 5.71493,4.75602 c 7.79138,6.48405 10.52251,9.93681 14.49997,18.33122 4.27025,9.01233 6.23709,17.183852 7.5037,31.175152 2.13835,23.62095 -0.27068,42.41266 -6.92908,54.05032 -3.85154,6.73179 -7.37389,9.69104 -17.44824,14.65891 -14.01015,6.9087 -28.60736,6.26679 -36.72286,-1.61489 -5.24851,-5.09728 -9.79682,-15.47192 -9.81559,-22.38924 -0.0147,-5.43398 0.17716,-5.87143 4.03841,-9.2051 4.40203,-3.80057 7.2288,-10.11943 6.0194,-13.45554 -1.86643,-5.14852 -9.26672,-5.23074 -11.9948,-0.13327 -0.77551,1.44905 -1.89096,2.46885 -2.47878,2.2662 -1.56473,-0.53943 -1.04909,-25.29733 0.75349,-36.17739 0.8201,-4.95 1.35018,-9.145412 1.17795,-9.323142 -0.17223,-0.17773 -3.45234,3.872272 -7.28913,9.000002 -3.8368,5.12773 -8.59952,11.34814 -10.58382,13.82314 -1.98431,2.475 -3.65029,4.95 -3.70218,5.5 -0.13458,1.42639 -7.85853,7.89986 -8.57318,7.18521 -0.32718,-0.32718 0.60178,-2.52769 2.06435,-4.89004 1.46257,-2.36234 3.91012,-6.32017 5.439,-8.79517 1.52887,-2.475 4.51072,-7.65 6.62633,-11.5 l 3.84655,-7.000002 -3.23761,3.000002 c -1.78069,1.65 -5.62831,7.20237 -8.55028,12.3386 -2.92197,5.13623 -5.56545,8.92959 -5.87441,8.42969 -0.30895,-0.4999 1.57145,-4.63986 4.17867,-9.19991 7.91433,-13.84224 36.41116,-44.089432 45.72905,-48.537862 3.99676,-1.90808 18.06006,-6.90487 31.25478,-11.10502 2.06779,-0.65822 -3.69758,-5.00899 -9.8524,-7.435 -11.06421,-4.3611 -31.49087,-15.46896 -36.58951,-19.89709 -6.32567,-5.49379 -10.98883,-9.09341 -11.78017,-9.09341 -0.84119,0 -6.1942,10.86285 -11.58034,23.5 -4.28457,10.0526 -4.7934,12.11966 -5.9079,24 -1.46234,15.58822 -2.20446,18.66662 -5.91001,24.51538 -1.56271,2.46654 -4.98522,8.53462 -7.60557,13.484622 -10.51206,19.85789 -9.31205,11.83809 3.66595,-24.500002 1.66965,-4.675 4.72044,-13.45 6.77952,-19.5 4.62873,-13.60015 5.65057,-16.0763 12.71115,-30.80178 l 5.65872,-11.80177 -11.00624,-10.69823 c -16.42336,-15.96374 -24.27513,-25.35135 -33.88465,-40.51263 -4.7708,-7.52707 -8.89637,-13.68559 -9.16791,-13.68559 -1.4989,0 9.26985,24.08151 14.53332,32.5 5.70206,9.11999 5.60194,8.92145 4.01224,7.95636 -10.14437,-6.15847 -17.45257,-14.41381 -24.19958,-27.33583 l -3.97893,-7.62053 0.67792,15 c 1.53257,33.91007 7.17181,73.99596 16.10776,114.5 4.17347,18.917142 4.06439,18.000002 2.14082,18.000002 -2.56354,0 -18.19016,-12.800432 -27.6525,-22.651332 -15.56438,-16.20352 -22.7889,-27.22793 -34.48124,-52.61734 -12.10569,-26.28699 -16.3658,-40.40818 -18.55409,-61.50216 -0.55511,-5.35104 -1.35205,-12.65417 -1.77098,-16.22917 l -0.76167,-6.5 -1.35194,12.12168 c -1.52387,13.66338 -1.95874,53.2757 -0.83299,75.87832 l 0.7471,15 -2.04341,-5.5 c -4.06207,-10.93342 -9.31219,-38.56511 -11.95978,-62.94502 -1.4272,-13.14224 -0.0639,-37.76653 2.63275,-47.55498 0.30305,-1.1 -1.13039,0.475 -3.18542,3.5 -2.05503,3.025 -6.07321,8.65 -8.92928,12.5 -2.85608,3.85 -6.86553,9.39562 -8.9099,12.3236 -5.93479,8.49992 -18.31633,34.48159 -21.69819,45.53195 -1.70754,5.57945 -4.89987,15.70729 -7.09405,22.50632 -2.19419,6.79903 -4.40356,15.28613 -4.90971,18.86023 l -0.92029,6.49836 5.85717,6.26133 c 3.22144,3.44373 7.35742,8.3504 9.19107,10.9037 1.83364,2.5533 6.74061,7.30024 10.90437,10.54876 4.16377,3.24851 12.52048,10.71278 18.57048,16.58726 6.05,5.874492 13.07335,11.735422 15.60744,13.024302 4.83673,2.46002 10.89256,7.11332 10.89256,8.36984 0,0.40583 -2.1375,0.36873 -4.75,-0.0824 -2.6125,-0.45117 -6.39838,-1.06126 -8.41307,-1.35577 -4.63912,-0.67814 -10.56977,-6.59786 -14.96835,-14.94076 -3.848,-7.298592 -6.91098,-10.648562 -17.41316,-19.044642 -4.42451,-3.53723 -10.91118,-10.07066 -14.4148,-14.51874 -3.50362,-4.44808 -7.51839,-8.99056 -8.9217,-10.09441 l -2.55149,-2.007 -1.24134,5.31405 c -0.68274,2.92273 -1.30527,7.11405 -1.3834,9.31405 -0.32709,9.21066 -1.57094,9.21066 -2.84741,0 -2.16933,-15.65326 -4.20964,-26.93208 -5.06213,-27.9834 -0.45339,-0.55913 -1.54907,-2.8166 -2.43484,-5.0166 l -1.61051,-4 2.03895,2.5 2.03895,2.5 -0.60478,-4 c -0.33264,-2.2 -1.23059,-7.375 -1.99547,-11.5 -4.34431,-23.42912 -6.69835,-43.70855 -6.73266,-58 l -0.0252,-10.5 -2.43164,7.5 c -3.16274,9.75496 -5.76079,21.54486 -9.36541,42.5 -4.93353,28.68067 -5.74651,36.20882 -6.36541,58.94278 -0.32854,12.06853 -0.73022,22.07564 -0.8926,22.23803 -0.16239,0.16238 -0.81284,-4.31187 -1.44545,-9.94278 -2.70944,-24.11697 -3.42929,-37.03218 -2.8837,-51.73803 0.62817,-16.9319 0.23643,-17.0483 -3.77964,-1.12298 -4.5404,18.00448 -7.19166,52.1324 -6.12732,78.872982 0.47094,11.83194 0.35632,17.25 -0.36491,17.25 -0.57833,-3e-5 -1.05151,-0.37503 -1.05151,-0.83336 0,-0.45834 -2.93278,-3.76612 -6.51729,-7.35063 -6.26321,-6.26321 -6.49733,-6.39641 -6.00528,-3.41666 2.38162,14.42273 3.52257,28.21196 3.52257,42.57295 0,19.604 2.00017,29.66298 12.03559,60.52767 1.07297,3.3 3.7938,11.85 6.04629,19 8.08758,25.67207 13.11212,33.12159 26.69109,39.57295 9.53242,4.52885 7.51547,4.50655 21.43772,0.23705 2.59088,-0.79454 8.69788,-1.52683 13.57112,-1.62731 7.32816,-0.1511 9.1688,0.12563 10.64364,1.60021 2.57908,2.57864 8.55813,5.4383 13.12106,6.27555 5.98743,1.09864 13.75272,4.82031 18.07853,8.6645 4.80078,4.26629 6.9217,5.07706 9.33637,3.56908 1.43697,-0.89741 2.78025,-0.89997 5.67729,-0.0108 6.05775,1.85917 7.69311,0.10486 11.701,-12.55215 1.87595,-5.92431 3.72856,-13.68692 4.11692,-17.25025 0.38835,-3.56334 1.56948,-9.45231 2.62474,-13.0866 1.05525,-3.6343 1.91864,-8.08209 1.91864,-9.88398 0,-1.8019 0.41831,-4.90338 0.92958,-6.89219 0.51126,-1.98881 1.44781,-6.31602 2.08122,-9.61602 2.09366,-10.90776 3.29143,-14.96611 5.31249,-18 3.60046,-5.4048 7.01061,-8.5 9.36491,-8.5 4.00283,0 9.64526,6.98509 13.09043,16.20537 3.85123,10.30706 5.05058,17.52719 5.8213,35.04463 0.41077,9.33627 0.97332,13.74686 1.75251,13.74023 2.54126,-0.0216 11.431,-4.90807 15.78542,-8.6768 7.52252,-6.51069 11.43007,-8.56724 14.8507,-7.81594 4.05958,0.89163 8.17335,6.1762 10.96617,14.0872 3.18286,9.01584 2.5546,19.13046 -1.78239,28.69549 -1.6758,3.6959 -2.80738,6.71982 -2.51461,6.71982 0.29276,0 12.30204,-5.79082 26.68728,-12.86849 z M 336.51477,259.79837 c -1.96823,-0.74124 -4.58729,-2.05424 -5.82015,-2.91777 -3.4414,-2.41045 -0.2707,-2.81599 3.69997,-0.47324 7.1398,4.21258 24.925,3.15855 38.25796,-2.26733 6.23103,-2.53574 7.02353,-2.6812 5.31851,-0.97618 -1.10196,1.10197 -5.35025,3.16995 -9.44064,4.59551 -9.07208,3.16177 -26.14688,4.24923 -32.01565,2.03901 z m 1.57858,-17.65609 c -5.59937,-1.40005 -15.36769,-6.46055 -16.42204,-8.50748 -0.57728,-1.12072 -1.95804,-3.16268 -3.06837,-4.53768 -1.83155,-2.26814 -7.93207,-22.21919 -7.98684,-26.12004 -0.0151,-1.07576 1.4981,-2.04585 4.50402,-2.88745 7.59825,-2.12738 11.61268,-9.10516 10.04524,-17.46036 -1.56258,-8.32927 -6.52281,-8.67945 -13.31174,-0.93977 l -4.90541,5.59239 -1.92743,-10.84239 c -2.32172,-13.06039 -2.70947,-38.47325 -0.64225,-42.09238 2.67504,-4.68325 -5.97766,-1.1731 -20.04651,8.13227 l -10.76132,7.11773 0.59611,4 c 0.69227,4.64519 3.04931,15.97844 4.00354,19.25 1.08978,3.7363 -1.31896,2.5619 -2.57953,-1.25768 -0.6367,-1.92922 -1.94958,-3.93151 -2.9175,-4.44952 -1.07242,-0.57394 -3.0504,-4.96543 -5.06368,-11.24232 -1.81711,-5.66527 -3.69039,-11.08388 -4.16285,-12.04137 -0.73041,-1.48027 0.97172,-2.65862 11.36943,-7.87083 11.48241,-5.75596 30.40019,-12.84912 34.45845,-12.92008 1.00027,-0.0175 2.69219,-0.6925 3.75981,-1.5 2.24214,-1.69588 11.01329,-1.92201 17.05887,-0.4398 2.2,0.53938 7.15,1.41811 11,1.95273 11.60403,1.61138 35.59252,12.78268 48.45679,22.56603 6.97941,5.30789 7.89519,6.45284 5.16124,6.45284 -1.1,0 -2.27811,-0.45 -2.61803,-1 -0.33992,-0.55 -1.32158,-1 -2.18146,-1 -1.28735,0 -1.34006,0.26915 -0.29848,1.52417 3.09165,3.72521 -0.64261,2.1993 -9.31883,-3.80792 -14.16971,-9.81078 -19.56886,-12.30666 -13.98798,-6.46625 6.46525,6.76589 10.40017,15.38397 14.9533,32.75 5.94637,22.68 3.15334,52.5181 -5.66284,60.49665 -2.60543,2.35788 -10.41759,4.9504 -20.86418,6.92392 -8.96103,1.69289 -11.92243,1.80405 -16.63953,0.62459 z m 16.85667,-2.68841 c 12.77108,-2.29523 19.39367,-6.1057 23.11341,-13.29889 2.07542,-4.01343 4.53193,-18.92702 4.51962,-27.43885 -0.0104,-7.19995 -2.69756,-22.05269 -5.20818,-28.78734 l -1.36753,-3.66833 -3.07007,2.66833 c -1.68854,1.46758 -5.3779,3.79333 -8.19858,5.16833 -3.59572,1.75281 -4.96321,2.94592 -4.57545,3.992 0.30419,0.8206 0.80492,6.6706 1.11274,13 0.52594,10.81424 0.42648,11.67499 -1.64977,14.27798 -4.86641,6.101 -11.82114,7.15315 -18.03508,2.72844 -3.19947,-2.27822 -10.4447,-13.72749 -11.54344,-18.24151 -0.84443,-3.46919 -2.04027,-2.77764 -2.87305,1.66149 -0.49971,2.66369 0.0445,4.90082 2.4105,9.90841 1.68078,3.55736 3.72021,7.01921 4.53208,7.693 2.03861,1.6919 1.84668,2.98019 -0.44399,2.98019 -1.08752,0 -4.25097,-2.61666 -7.29544,-6.03445 l -5.37531,-6.03444 -3.57635,1.49429 -3.57635,1.4943 0.96881,4.29015 c 4.79526,21.23466 9.76685,28.46584 22.27476,32.39865 5.37454,1.6899 7.19585,1.66422 17.85667,-0.25175 z m -3.72857,-32.95516 c 3.7515,-1.00675 5.68237,-8.15913 3.0901,-11.44638 -1.46462,-1.85727 -5.84094,-1.63753 -11.09322,0.55702 -3.17674,1.32732 -3.70239,1.97644 -3.43758,4.24505 0.20133,1.72486 1.52205,3.49049 3.71048,4.96042 3.60661,2.42249 4.36354,2.58738 7.73022,1.68389 z m -23.35907,-80.05753 c -0.67703,-0.27392 -2.02703,-0.29059 -3,-0.0371 -0.97297,0.25354 -0.41903,0.47766 1.23097,0.49804 1.65,0.0204 2.44606,-0.18706 1.76903,-0.46099 z m 226.73097,81.65594 c 0,-0.56332 2.81693,-1 6.45078,-1 14.96661,0 32.08568,-6.51007 38.47339,-14.63073 1.34939,-1.71547 2.07583,-2.11143 2.07583,-1.13149 0,2.44728 -8.51166,9.57087 -14.73335,12.33065 -3.17166,1.40686 -8.46665,3.19785 -11.76665,3.97997 -6.93635,1.64396 -20.5,1.94276 -20.5,0.4516 z m -164.5,-68.00047 c -3.3,-2.67994 -10.05,-7.00894 -15,-9.61998 -4.95,-2.61105 -10.35,-5.59944 -12,-6.64087 -2.74205,-1.73069 -2.78504,-1.8369 -0.5,-1.23515 9.44442,2.48713 28.99069,14.30765 32.09215,19.4076 1.03315,1.69888 1.77257,3.0601 1.64315,3.02495 -0.12941,-0.0352 -2.9353,-2.25661 -6.2353,-4.93655 z m 209.24474,116.25047 c 5.17028,-12.53597 8.97321,-24.63821 9.86725,-31.40103 0.64895,-4.90889 0.57059,-5.23605 -0.95243,-3.97653 -0.91276,0.75485 -1.65956,1.96675 -1.65956,2.69311 0,2.30681 -6.01675,19.38424 -10.65742,30.24912 -3.50824,8.2136 -4.19254,10.66461 -3.16022,11.3192 0.7247,0.45953 1.59293,0.8424 1.92939,0.85082 0.33646,0.008 2.4213,-4.37219 4.63299,-9.73469 z m -134.89865,7.12444 c 7.70997,-2.21669 19.06493,-7.72446 22.40391,-10.86709 3.33567,-3.13951 3.65578,-7.03722 0.64268,-7.82516 -3.05264,-0.79829 -5.64129,0.50531 -12.39268,6.24073 -5.30534,4.50697 -9.31644,6.85818 -17.25,10.11153 -2.57263,1.05497 -3.05258,3.96555 -0.65391,3.96555 0.87785,0 4.14035,-0.7315 7.25,-1.62556 z m -258.84609,-3.61571 c 0,-4.74647 3.87282,-38.13464 5.53972,-47.75873 0.80971,-4.675 2.40185,-13.9 3.53808,-20.5 1.53693,-8.92748 1.98348,-15.20054 1.74404,-24.5 l -0.32184,-12.5 -3.97885,-5.67179 -3.97885,-5.67179 -3.22268,18.17179 c -8.04266,45.35033 -8.49909,61.36078 -2.67739,93.91713 1.51074,8.4484 3.35777,10.93111 3.35777,4.51339 z m 486.24549,-50.25873 c 0.0747,-10.77824 -4.13819,-32.48706 -7.64843,-39.41172 -9.37894,-18.50186 -10.29118,-19.74594 -17.3685,-23.6866 -11.316,-6.30077 -18.40906,-11.98938 -26.40539,-21.17705 -5.56758,-6.39708 -6.16652,-5.80193 -5.6183,5.58288 0.49886,10.35972 2.01397,14.78333 8.6286,25.19249 1.57277,2.475 5.24677,8.55 8.16446,13.5 2.91768,4.95 7.26174,11.59253 9.65347,14.76117 2.39173,3.16864 4.3486,6.01256 4.3486,6.31982 0,0.30726 1.29069,2.43974 2.8682,4.73883 8.49813,12.38536 13.95684,29.15688 14.21682,43.68018 l 0.11635,6.5 4.49086,-13.5 c 3.94122,-11.84771 4.4985,-14.60153 4.55326,-22.5 z m -415.70368,18.75 c -0.36969,-0.9625 -1.50986,-4.675 -2.5337,-8.25 -1.02385,-3.575 -3.24671,-11 -4.93969,-16.5 -1.69299,-5.5 -3.77397,-12.3625 -4.62439,-15.25 -0.85043,-2.8875 -1.74262,-5.25 -1.98266,-5.25 -0.24003,0 -0.40914,7.28596 -0.3758,16.19102 0.0697,18.62582 0.29913,19.36608 8.12092,26.2084 5.5736,4.87564 7.4348,5.71309 6.33532,2.85058 z m 345.07139,-17.75 c 3.47618,-7.15 5.54778,-11.88984 4.60356,-10.53297 -0.94422,1.35686 -4.33127,5.40686 -7.52679,9 -4.95845,5.57544 -5.72794,6.95435 -5.25,9.40797 0.30802,1.58125 0.59556,4.05625 0.63898,5.5 0.0473,1.57223 0.30654,2.02342 0.64643,1.125 0.31212,-0.825 3.41164,-7.35 6.88782,-14.5 z m 13.86164,-29.80162 c 1.38884,-4.29089 2.52516,-9.35339 2.52516,-11.25 0,-5.97141 1.76926,-3.74893 3.02637,3.80162 0.66389,3.9875 1.49205,7.7 1.84035,8.25 0.3483,0.55 0.87089,-3.725 1.16129,-9.5 0.48361,-9.61709 0.34712,-10.75369 -1.62318,-13.51701 -1.18316,-1.65936 -3.03921,-4.67385 -4.12455,-6.69886 l -1.97334,-3.68183 0.47966,7.47409 c 0.56691,8.83367 -1.05861,19.97797 -4.26597,29.24692 -1.2707,3.67218 -2.61028,7.57669 -2.97685,8.67669 -0.36657,1.1 0.2498,0.425 1.3697,-1.5 1.1199,-1.925 3.17251,-7.01073 4.56136,-11.30162 z m -57.60175,4.44549 c 12.6386,-6.42248 15.26435,-8.58755 18.78559,-15.48976 4.79141,-9.39192 6.62995,-18.86198 6.53371,-33.65411 -0.0866,-13.30361 -1.97179,-30.97127 -3.10922,-29.13848 -0.32074,0.51683 -4.63317,3.09178 -9.58317,5.72211 -10.41915,5.53652 -11.95375,6.81828 -11.00535,9.19207 1.26425,3.16433 1.74649,20.95723 0.58742,21.67357 -0.66175,0.40899 -1.08207,-0.26729 -1.08207,-1.74103 0,-3.55108 -2.01452,-8.70824 -3.40166,-8.70824 -0.6633,0 -2.72277,1.56491 -4.5766,3.47757 -1.85382,1.91266 -5.50747,4.18732 -8.1192,5.0548 -5.4383,1.80631 -7.15254,3.45976 -7.15254,6.89888 l 0,2.42509 -2.22643,-2.67817 c -3.32704,-4.00209 -4.52357,-6.69897 -4.52357,-10.19576 0,-2.07527 -0.42624,-3.00671 -1.25,-2.73157 -1.62981,0.54436 -1.07911,11.56491 0.85131,17.0363 2.10744,5.97314 1.67308,6.70225 -1.1684,1.96126 l -2.54817,-4.25159 -4.44237,3.71336 c -4.18324,3.49675 -4.44155,4.00725 -4.4283,8.75159 0.0111,3.98586 0.86374,6.59714 4.08191,12.50146 2.23731,4.10478 5.00118,8.15478 6.14191,9 8.12161,6.01769 21.15904,6.50425 31.6352,1.18065 z M 204.89888,147.66973 c 0.47878,-6.58584 0.35217,-7.11583 -2.56801,-10.74961 -3.49353,-4.34722 -4.14675,-4.40175 -2.81746,-0.23516 0.511,1.60169 1.67678,6.4359 2.59064,10.7427 0.91386,4.30679 1.80323,7.68179 1.97638,7.5 0.17316,-0.1818 0.54146,-3.44786 0.81845,-7.25793 z m 184.69447,-31.12364 c 0,-0.30306 -1.51075,-1.18225 -3.35722,-1.95376 -1.84647,-0.7715 -6.23308,-3.78604 -9.74802,-6.69897 -5.31752,-4.40678 -6.06819,-4.79242 -4.46983,-2.29624 2.78597,4.35088 7.76421,9.55337 10.07507,10.52891 2.27365,0.95984 7.5,1.25256 7.5,0.42006 z M 497.48491,91.797668 c 3.76094,-6.95587 5.3092,-11.11139 6.14362,-16.48937 1.45598,-9.38399 0.82868,-12.16608 -1.28774,-5.71118 -2.24393,6.84378 -9.4037,27.59902 -10.26261,29.75 -0.38435,0.962502 -0.45638,1.750002 -0.16007,1.750002 0.29631,0 2.80137,-4.184752 5.5668,-9.299452 z m 111.62797,-16.95055 c -0.36095,-2.3375 -1.54635,-7.01492 -2.63424,-10.39426 -1.64918,-5.1229 -2.29542,-6.06125 -3.88761,-5.64488 -1.86964,0.48892 -1.87091,0.59667 -0.0602,5.14426 3.05363,7.6694 6.43425,15.14488 6.84894,15.14488 0.21418,0 0.0941,-1.9125 -0.26684,-4.25 z m 49.0525,-6 c -1.15208,-10.49161 -2.52962,-13.87082 -7.94919,-19.5 -2.77999,-2.8875 -5.31672,-5.25 -5.63719,-5.25 -0.32047,0 2.00495,5.16283 5.16759,11.47295 3.16265,6.31013 6.29321,13.28513 6.9568,15.5 0.6636,2.21488 1.41843,4.02705 1.67741,4.02705 0.25899,0 0.16204,-2.8125 -0.21542,-6.25 z M 322.49367,58.305308 c 0.0639,-2.10877 -0.6682,-4.08542 -2.03693,-5.5 l -2.13661,-2.20819 0.63345,2.5 c 0.3484,1.375 0.9434,4.975 1.32222,8 0.56066,4.47705 0.82169,5.03502 1.40348,3 0.39309,-1.375 0.75957,-3.98132 0.81439,-5.79181 z"
       id="path4313"
       style="fill:#ffffff"
       inkscape:connector-curvature="0" />
  </g>
</svg>
